<?xml version="1.0" encoding="utf-8"?>
<!-- Generator: Adobe Illustrator 23.0.2, SVG Export Plug-In . SVG Version: 6.00 Build 0)  -->
<svg version="1.1" id="Layer_1" xmlns="http://www.w3.org/2000/svg" xmlns:xlink="http://www.w3.org/1999/xlink" x="0px" y="0px"
	 viewBox="0 0 255.12 147.4" style="enable-background:new 0 0 255.12 147.4;" xml:space="preserve">
<style type="text/css">
	.st0{fill:#DB414C;}
	.st1{fill:#3D3C92;}
	.st2{fill:#FFFFFF;}
</style>
<g>
	<g id="Group_151_3_" transform="translate(1557 7599)">
		<g id="Group_122_3_" transform="translate(0)">
			<g id="Group_121_3_">
				<path id="Path_104_1_" class="st0" d="M-1415.45-7552.72c14.02,1.41,9.02,16.39,3.19,23.69c-5.74,7.18-14.91,13.12-23.17,6.42
					C-1456.71-7539.86-1439.51-7555.14-1415.45-7552.72z"/>
				<path id="Path_103_1_" class="st1" d="M-1416.86-7553.36c14.02,1.41,9.02,16.39,3.19,23.69c-5.74,7.18-14.91,13.12-23.17,6.42
					C-1458.12-7540.5-1440.93-7555.77-1416.86-7553.36z"/>
			</g>
			<g id="Group_100_3_" transform="translate(47.262 25.078)">
				<g id="Group_99_3_">
					<g id="Group_98_3_" transform="translate(0 22.258)">
						<g id="Group_97_3_">
							<path id="Path_84_3_" class="st2" d="M-1471.23-7581.64c0.42,0.14,1.96,0.48,2.53-3.64c0.36-2.57-0.45-2.9-0.87-2.89
								s-1.05,0.44-1.32,1.79c-0.27,1.35-1.03,5.01-1.81,8.75c-0.56,2.91-3.38,4.82-6.29,4.26c-1.05-0.2-2.02-0.72-2.78-1.48
								c2.61,2.02,5.74,0.36,6.36-3.3c0.56-2.74,0.84-4.11,1.1-5.35c0.26-1.25,0.91-4.89,4.47-5.4c3.52-0.51,5.13,2.78,3.46,5.45
								C-1467.81-7581.48-1470.24-7581.03-1471.23-7581.64"/>
						</g>
						<path id="Path_85_3_" class="st2" d="M-1468.83-7579.05L-1468.83-7579.05c-0.17,0.01-0.32-0.13-0.32-0.3
							c0-0.03,0-0.07,0.01-0.1l0,0c0.05-0.17-0.04-0.35-0.21-0.4c0,0,0,0,0,0c-0.26-0.04-0.51,0.12-0.57,0.38l-0.01,0.03
							c-0.05,0.22-0.25,0.39-0.48,0.4l0,0c-0.2,0-0.38,0.12-0.47,0.3c-0.09,0.15-0.05,0.35,0.1,0.44c0.05,0.03,0.11,0.05,0.18,0.05
							h0.03c0.17-0.01,0.32,0.13,0.32,0.3c0,0.03,0,0.07-0.01,0.1l0,0c-0.05,0.17,0.04,0.35,0.21,0.41c0,0,0,0,0,0
							c0.26,0.04,0.51-0.12,0.57-0.38l0.01-0.03c0.06-0.22,0.25-0.39,0.48-0.4h0.03c0.26-0.01,0.48-0.22,0.48-0.49
							C-1468.49-7578.92-1468.64-7579.06-1468.83-7579.05C-1468.82-7579.05-1468.82-7579.05-1468.83-7579.05z"/>
					</g>
					<path id="Path_86_3_" class="st2" d="M-1472.39-7569.76c-0.5,2.22,3.21,2.43,3.21-0.19c0-1.33-1.47-2.38-3.39-2.38
						c-2.14-0.05-4.18,0.91-5.51,2.59c-3.56,4.4-1.7,9.75,2.89,9.65c-2.9-0.88-1.61-7.17-0.08-9.46c1.37-2.2,2.74-2.23,3.38-2.03
						C-1470.84-7571.24-1471.18-7569.58-1472.39-7569.76"/>
				</g>
			</g>
		</g>
	</g>
	<g id="Group_111_3_" transform="translate(1562.479 7758.729)">
		<g id="Group_106_3_" transform="translate(0 0)">
			<g id="Group_105_3_">
				<g id="Group_104_3_">
					<g id="Group_103_3_">
						<path id="Path_87_3_" class="st2" d="M-1449.13-7666.16c0-0.58,0.11-1.16,0.32-1.69c0.21-0.52,0.52-1,0.92-1.4
							c0.41-0.41,0.91-0.74,1.45-0.96c0.6-0.24,1.24-0.36,1.89-0.36c0.58-0.02,1.16,0.08,1.7,0.29c0.37,0.15,0.73,0.33,1.06,0.55
							c0.15,0.09,0.26,0.24,0.29,0.42c0.01,0.19-0.05,0.37-0.16,0.52l-0.21,0.33c-0.08,0.16-0.23,0.27-0.4,0.31
							c-0.18,0.01-0.36-0.03-0.52-0.12c-0.21-0.14-0.44-0.25-0.68-0.35c-0.31-0.11-0.63-0.17-0.96-0.16c-0.36,0-0.72,0.07-1.06,0.21
							c-0.31,0.13-0.58,0.32-0.81,0.56c-0.22,0.24-0.4,0.52-0.51,0.83c-0.12,0.32-0.19,0.67-0.18,1.01c0,0.34,0.06,0.69,0.18,1.01
							c0.12,0.31,0.29,0.6,0.52,0.84c0.23,0.25,0.52,0.44,0.83,0.58c0.71,0.29,1.5,0.29,2.21,0c0.27-0.12,0.53-0.26,0.78-0.43
							c0.42-0.23,0.73-0.16,0.94,0.21l0.17,0.31c0.21,0.39,0.15,0.69-0.18,0.92c-0.15,0.12-0.31,0.22-0.48,0.32
							c-0.21,0.12-0.43,0.23-0.66,0.31c-0.27,0.11-0.56,0.19-0.84,0.25c-0.33,0.07-0.67,0.1-1.01,0.1
							c-0.65,0.01-1.29-0.11-1.89-0.35c-0.54-0.21-1.03-0.53-1.45-0.94c-0.4-0.4-0.71-0.87-0.92-1.4
							C-1449.02-7664.98-1449.13-7665.57-1449.13-7666.16z"/>
						<path id="Path_88_3_" class="st2" d="M-1440.44-7666.16c-0.01-0.61,0.1-1.22,0.31-1.79c0.2-0.52,0.49-0.99,0.88-1.4
							c0.38-0.4,0.84-0.71,1.36-0.91c0.55-0.22,1.14-0.33,1.73-0.32c0.55-0.01,1.09,0.09,1.59,0.31c0.45,0.19,0.85,0.47,1.17,0.84
							c0.32,0.37,0.57,0.8,0.72,1.27c0.17,0.52,0.25,1.06,0.25,1.6c-0.01,0.4-0.33,0.71-0.73,0.71h-5.13
							c0.02,0.35,0.11,0.69,0.27,1.01c0.14,0.27,0.33,0.52,0.56,0.72c0.23,0.19,0.49,0.34,0.78,0.44c0.64,0.21,1.33,0.2,1.96-0.03
							c0.27-0.1,0.52-0.22,0.77-0.36c0.16-0.09,0.35-0.13,0.54-0.1c0.17,0.05,0.31,0.17,0.39,0.33l0.2,0.33
							c0.21,0.4,0.13,0.71-0.23,0.92c-0.36,0.22-0.74,0.41-1.14,0.55c-0.55,0.21-1.13,0.3-1.72,0.29c-0.65,0.01-1.29-0.11-1.88-0.35
							c-0.53-0.22-1.02-0.55-1.43-0.96c-0.39-0.4-0.7-0.88-0.9-1.41C-1440.33-7665.01-1440.44-7665.58-1440.44-7666.16z
							 M-1434.51-7667.12c0.01-0.51-0.17-1-0.5-1.38c-0.31-0.33-0.75-0.5-1.2-0.49c-0.5-0.02-0.98,0.17-1.35,0.51
							c-0.37,0.36-0.61,0.84-0.69,1.36L-1434.51-7667.12z"/>
						<path id="Path_89_3_" class="st2" d="M-1430.9-7672.06c0-0.46,0.23-0.69,0.69-0.69h0.71c0.33-0.05,0.65,0.18,0.69,0.52
							c0.01,0.06,0.01,0.12,0,0.18v2.14c0,0.11,0,0.21-0.01,0.29c0,0.08-0.01,0.15-0.02,0.23c-0.01,0.07-0.02,0.13-0.02,0.2h0.03
							c0.16-0.26,0.36-0.49,0.6-0.68c0.25-0.19,0.51-0.34,0.8-0.46c0.38-0.15,0.78-0.22,1.18-0.21c0.53-0.01,1.05,0.1,1.53,0.32
							c0.45,0.21,0.85,0.52,1.17,0.9c0.34,0.41,0.59,0.88,0.75,1.39c0.18,0.58,0.27,1.18,0.27,1.78c0.01,0.62-0.09,1.24-0.3,1.83
							c-0.18,0.51-0.45,0.99-0.81,1.4c-0.34,0.38-0.75,0.69-1.22,0.89c-0.48,0.21-1,0.32-1.52,0.31c-0.41,0.01-0.82-0.06-1.21-0.21
							c-0.29-0.13-0.55-0.29-0.79-0.5c-0.24-0.19-0.44-0.44-0.58-0.71h-0.03c0,0.03,0.01,0.07,0.02,0.1c0,0.04,0,0.07,0.01,0.12
							c0.01,0.05,0.01,0.1,0.01,0.15v0.27c0.01,0.16-0.05,0.32-0.17,0.44c-0.15,0.12-0.33,0.17-0.52,0.16h-0.56
							c-0.46,0-0.69-0.23-0.69-0.69L-1430.9-7672.06z M-1428.87-7666.15c0,0.33,0.04,0.67,0.13,0.99c0.08,0.3,0.21,0.59,0.4,0.84
							c0.17,0.24,0.4,0.44,0.65,0.58c0.27,0.15,0.58,0.23,0.9,0.22c0.29,0,0.57-0.06,0.84-0.17c0.26-0.12,0.49-0.29,0.68-0.5
							c0.2-0.24,0.36-0.52,0.45-0.81c0.12-0.36,0.17-0.73,0.16-1.11c0-0.37-0.05-0.73-0.16-1.08c-0.09-0.3-0.24-0.58-0.43-0.83
							c-0.18-0.22-0.4-0.41-0.65-0.53c-0.26-0.13-0.55-0.19-0.84-0.19c-0.27,0-0.54,0.05-0.79,0.16c-0.26,0.11-0.49,0.27-0.68,0.48
							c-0.21,0.23-0.37,0.51-0.48,0.81C-1428.82-7666.94-1428.88-7666.54-1428.87-7666.15L-1428.87-7666.15z"/>
						<path id="Path_90_3_" class="st2" d="M-1420.94-7668.76c0-0.46,0.23-0.69,0.68-0.69h0.73c0.45,0,0.68,0.23,0.68,0.69v6.32
							c0,0.46-0.23,0.69-0.68,0.69h-0.73c-0.45,0-0.68-0.23-0.68-0.69V-7668.76z"/>
					</g>
				</g>
				<path id="Path_91_3_" class="st2" d="M-1420.26-7670.89c-0.33,0.05-0.63-0.18-0.68-0.51c-0.01-0.06-0.01-0.11,0-0.17v-0.5
					c0-0.46,0.23-0.69,0.68-0.69h0.73c0.46,0,0.69,0.23,0.69,0.69v0.5c0,0.45-0.23,0.68-0.69,0.68H-1420.26z"/>
			</g>
			<path id="Path_92_3_" class="st2" d="M-1415.39-7672.76h-0.73c-0.45,0-0.68,0.23-0.68,0.69v9.62c0,0.46,0.23,0.69,0.68,0.69h0.73
				c0.45,0,0.68-0.23,0.68-0.69v-9.62C-1414.71-7672.53-1414.94-7672.76-1415.39-7672.76z"/>
		</g>
		<g id="Group_110_3_" transform="translate(0 60.546)">
			<path id="Path_93_3_" class="st2" d="M-1449.13-7719.15c-0.01-0.03,0.02-0.06,0.05-0.07c0.01,0,0.01,0,0.02,0h0.61
				c0.08,0,0.17,0.01,0.24,0.04c0.07,0.03,0.14,0.07,0.19,0.12c0.05,0.05,0.1,0.12,0.12,0.19c0.03,0.08,0.05,0.16,0.05,0.24
				c0,0.08-0.01,0.17-0.05,0.24c-0.03,0.07-0.07,0.14-0.12,0.19c-0.05,0.05-0.12,0.1-0.19,0.12c-0.08,0.03-0.16,0.04-0.24,0.04
				h-0.48v0.7c0,0.03-0.02,0.06-0.05,0.07c-0.01,0-0.01,0-0.02,0h-0.06c-0.03,0-0.06-0.02-0.07-0.05c0-0.01,0-0.01,0-0.02
				L-1449.13-7719.15z M-1448.48-7718.2c0.12,0.01,0.23-0.03,0.32-0.11c0.08-0.08,0.12-0.2,0.11-0.31c0.01-0.11-0.04-0.22-0.11-0.3
				c-0.08-0.08-0.2-0.12-0.31-0.11h-0.46v0.84L-1448.48-7718.2z"/>
			<path id="Path_94_3_" class="st2" d="M-1415.63-7719.16c0.01-0.03,0.04-0.06,0.08-0.06h0.09c0.03,0,0.07,0.02,0.07,0.06
				l0.67,1.82c0.02,0.05,0,0.08-0.05,0.08h-0.06c-0.04,0-0.07-0.02-0.08-0.06l-0.21-0.57h-0.78l-0.21,0.57
				c-0.01,0.04-0.04,0.06-0.08,0.06h-0.06c-0.06,0-0.08-0.03-0.06-0.08L-1415.63-7719.16z M-1415.18-7718.05l-0.26-0.71
				c-0.02-0.04-0.03-0.08-0.04-0.12c-0.01-0.05-0.02-0.09-0.03-0.13h0c-0.01,0.04-0.02,0.08-0.04,0.13
				c-0.01,0.05-0.03,0.09-0.04,0.12l-0.26,0.71H-1415.18z"/>
			<path id="Path_95_3_" class="st2" d="M-1442.79-7719.15c-0.01-0.03,0.02-0.06,0.05-0.07c0.01,0,0.01,0,0.02,0h0.06
				c0.03,0,0.06,0.02,0.07,0.05c0,0.01,0,0.01,0,0.02v0.82h1.13v-0.82c0-0.04,0.02-0.07,0.07-0.07h0.06c0.03,0,0.06,0.02,0.07,0.05
				c0,0.01,0,0.01,0,0.02v1.81c0,0.03-0.02,0.06-0.05,0.07c-0.01,0-0.01,0-0.02,0h-0.06c-0.05,0-0.07-0.02-0.07-0.07v-0.82h-1.13
				v0.82c0,0.03-0.02,0.06-0.05,0.07c-0.01,0-0.01,0-0.02,0h-0.06c-0.03,0-0.06-0.02-0.07-0.05c0-0.01,0-0.01,0-0.02V-7719.15z"/>
			<path id="Path_96_3_" class="st2" d="M-1435.77-7719.16c0.01-0.03,0.04-0.06,0.07-0.06h0.09c0.03,0,0.07,0.02,0.07,0.06
				l0.67,1.82c0.02,0.05,0,0.08-0.05,0.08h-0.06c-0.04,0.01-0.07-0.02-0.08-0.06l-0.21-0.57h-0.78l-0.2,0.57
				c-0.01,0.04-0.04,0.06-0.08,0.06h-0.06c-0.06,0-0.08-0.03-0.06-0.08L-1435.77-7719.16z M-1435.31-7718.05l-0.26-0.71
				c-0.02-0.04-0.03-0.08-0.04-0.12l-0.03-0.13h0c-0.01,0.04-0.02,0.08-0.04,0.13c-0.01,0.05-0.03,0.09-0.04,0.12l-0.26,0.71
				H-1435.31z"/>
			<path id="Path_97_3_" class="st2" d="M-1429.73-7719.15c0-0.04,0.02-0.07,0.07-0.07h0.53c0.07,0,0.14,0,0.21,0.01
				c0.05,0.01,0.1,0.02,0.15,0.04c0.09,0.04,0.16,0.11,0.21,0.2c0.05,0.09,0.08,0.19,0.07,0.29c0,0.12-0.03,0.24-0.1,0.35
				c-0.06,0.09-0.16,0.16-0.27,0.19v0l0.02,0.03l0.03,0.05l0.38,0.71c0.01,0.02,0.01,0.04,0.01,0.06c-0.01,0.02-0.03,0.02-0.05,0.02
				h-0.07c-0.03,0-0.07-0.02-0.08-0.05l-0.42-0.77h-0.49v0.75c0,0.03-0.02,0.06-0.05,0.07c-0.01,0-0.01,0-0.02,0h-0.06
				c-0.05,0-0.07-0.02-0.07-0.07L-1429.73-7719.15z M-1429.08-7718.26c0.1,0.01,0.21-0.03,0.28-0.11c0.07-0.08,0.11-0.19,0.1-0.3
				c0-0.07-0.02-0.14-0.05-0.21c-0.03-0.06-0.09-0.11-0.15-0.14c-0.03-0.01-0.07-0.02-0.1-0.03c-0.05-0.01-0.1-0.01-0.15-0.01h-0.39
				v0.78H-1429.08z"/>
			<path id="Path_98_3_" class="st2" d="M-1423.25-7719.15c0-0.04,0.02-0.06,0.07-0.06h0.07c0.04,0,0.07,0.02,0.08,0.05l0.49,1.09
				l0.05,0.12l0.05,0.11h0c0.01-0.03,0.02-0.07,0.04-0.11c0.02-0.05,0.04-0.09,0.05-0.12l0.49-1.09c0.01-0.03,0.05-0.05,0.08-0.05
				h0.07c0.04,0,0.07,0.03,0.07,0.06l0.15,1.82c0.01,0.03-0.01,0.06-0.05,0.07c-0.01,0-0.01,0-0.02,0h-0.05
				c-0.05,0-0.07-0.02-0.07-0.06l-0.1-1.3c0-0.02,0-0.04,0-0.06l0-0.07l0-0.07v-0.06h-0.01l-0.02,0.06l-0.03,0.07l-0.03,0.07
				l-0.02,0.06l-0.44,0.95c-0.01,0.03-0.04,0.06-0.08,0.05h-0.07c-0.04,0-0.07-0.02-0.08-0.05l-0.44-0.95
				c-0.01-0.03-0.03-0.08-0.05-0.14c-0.02-0.06-0.04-0.1-0.05-0.14h-0.01l0,0.14c0,0.06,0,0.1-0.01,0.14l-0.1,1.3
				c0,0.03-0.02,0.06-0.06,0.06c0,0-0.01,0-0.01,0h-0.05c-0.05,0-0.07-0.02-0.07-0.07L-1423.25-7719.15z"/>
		</g>
	</g>
</g>
</svg>
