<?xml version="1.0" encoding="utf-8"?>
<!-- Generator: Adobe Illustrator 23.0.2, SVG Export Plug-In . SVG Version: 6.00 Build 0)  -->
<svg version="1.1" id="Layer_1" xmlns="http://www.w3.org/2000/svg" xmlns:xlink="http://www.w3.org/1999/xlink" x="0px" y="0px"
	 viewBox="0 0 380 307" style="enable-background:new 0 0 380 307;" xml:space="preserve">
<style type="text/css">
	.st0{enable-background:new    ;}
	.st1{fill:#0b5684;}
</style>
<g class="st0">
	<path d="M4.9,273.7c0.1-0.7,0.5-1.1,1.2-1.1h1.6c0.7,0,1.1,0.3,1.3,0.9l5.5,12.8c0.1,0.4,0.3,0.7,0.4,1.1c0.1,0.4,0.3,0.8,0.4,1.1
		c0.1,0.4,0.3,0.8,0.4,1.2H16c0.1-0.4,0.3-0.8,0.4-1.2c0.1-0.3,0.3-0.7,0.4-1.1c0.1-0.4,0.3-0.8,0.4-1.1l5.5-12.8
		c0.2-0.6,0.7-0.9,1.3-0.9h1.6c0.7,0,1.2,0.4,1.2,1.1l1.9,23.1c0,0.8-0.3,1.2-1.2,1.2h-1.2c-0.7,0-1.2-0.4-1.2-1.2L24.1,282
		c0-0.4-0.1-0.8-0.1-1.2c0-0.4,0-0.8,0-1.2c0-0.4,0-0.9,0-1.3h-0.1c-0.2,0.5-0.3,0.9-0.5,1.3c-0.1,0.4-0.3,0.8-0.5,1.2
		c-0.2,0.4-0.3,0.8-0.4,1.2l-4.7,10.5c-0.2,0.6-0.7,0.9-1.4,0.9h-1.2c-0.7,0-1.1-0.3-1.4-0.9L9.3,282c-0.1-0.3-0.3-0.7-0.4-1.2
		c-0.2-0.4-0.3-0.9-0.5-1.3c-0.2-0.5-0.3-0.9-0.5-1.4H7.8v1.3c0,0.4,0,0.8,0,1.2s0,0.9-0.1,1.2l-1.2,14.9c-0.1,0.8-0.5,1.2-1.2,1.2
		H4.2c-0.8,0-1.2-0.4-1.2-1.2L4.9,273.7z"/>
	<path d="M34.6,276.1c-0.8,0-1.2-0.4-1.2-1.2v-1.2c0-0.8,0.4-1.2,1.2-1.2h1.2c0.8,0,1.2,0.4,1.2,1.2v1.2c0,0.8-0.4,1.2-1.2,1.2H34.6
		z M33.4,281c0-0.8,0.4-1.2,1.2-1.2h1.1c0.8,0,1.2,0.4,1.2,1.2v15.8c0,0.8-0.4,1.2-1.2,1.2h-1.1c-0.8,0-1.2-0.4-1.2-1.2V281z"/>
	<path d="M40.8,288.9c0-1.3,0.2-2.6,0.7-3.8s1.2-2.2,2-3c0.9-0.9,1.9-1.5,3.1-2c1.2-0.5,2.5-0.7,3.9-0.7c0.8,0,1.5,0.1,2.1,0.2
		c0.6,0.1,1.2,0.3,1.7,0.5s0.9,0.4,1.3,0.6c0.4,0.2,0.7,0.4,0.9,0.6c0.3,0.2,0.5,0.4,0.5,0.7s-0.1,0.6-0.3,0.9l-0.4,0.5
		c-0.4,0.6-0.9,0.7-1.6,0.3c-0.4-0.3-0.9-0.6-1.6-0.9c-0.7-0.3-1.5-0.5-2.5-0.5c-0.9,0-1.8,0.2-2.5,0.5c-0.8,0.3-1.5,0.8-2,1.3
		c-0.6,0.6-1,1.3-1.3,2.1s-0.5,1.7-0.5,2.6c0,0.9,0.2,1.8,0.5,2.6s0.8,1.5,1.3,2.1c0.6,0.6,1.3,1.1,2,1.4c0.8,0.3,1.6,0.5,2.6,0.5
		c1.1,0,2-0.2,2.8-0.6c0.8-0.4,1.4-0.7,1.8-1.1c0.7-0.4,1.2-0.3,1.6,0.3l0.3,0.5c0.4,0.6,0.3,1.2-0.3,1.6c-0.3,0.2-0.6,0.5-1,0.7
		s-0.9,0.5-1.4,0.7c-0.5,0.2-1.2,0.4-1.8,0.6c-0.7,0.2-1.4,0.2-2.2,0.2c-1.4,0-2.8-0.2-3.9-0.7s-2.2-1.1-3.1-2c-0.9-0.9-1.5-1.9-2-3
		S40.8,290.3,40.8,288.9z"/>
	<path d="M61.1,281c0-0.8,0.4-1.2,1.2-1.2h1c0.8,0,1.2,0.4,1.2,1.2v2.1c0,0.2,0,0.4,0,0.5c0,0.2,0,0.3-0.1,0.4c0,0.1,0,0.3,0,0.4
		h0.1c0.2-0.6,0.5-1.2,0.8-1.8c0.3-0.6,0.8-1.1,1.2-1.5c0.5-0.4,1-0.8,1.6-1.1c0.6-0.3,1.2-0.4,1.9-0.4c0.8,0,1.2,0.4,1.2,1.2v1
		c0,0.8-0.4,1.2-1.3,1.2c-0.9,0-1.7,0.2-2.3,0.7c-0.7,0.4-1.2,1-1.7,1.7c-0.4,0.7-0.8,1.5-1,2.4s-0.3,1.8-0.3,2.7v6.3
		c0,0.8-0.4,1.2-1.2,1.2h-1.1c-0.8,0-1.2-0.4-1.2-1.2V281z"/>
	<path d="M72,288.9c0-1.4,0.3-2.6,0.8-3.8c0.5-1.2,1.2-2.2,2.1-3c0.9-0.9,1.9-1.5,3.1-2c1.2-0.5,2.5-0.7,3.8-0.7s2.6,0.2,3.8,0.7
		c1.2,0.5,2.2,1.1,3.1,2c0.9,0.9,1.6,1.9,2.1,3c0.5,1.2,0.8,2.4,0.8,3.8c0,1.4-0.3,2.7-0.8,3.8c-0.5,1.2-1.2,2.2-2.1,3
		c-0.9,0.9-1.9,1.5-3.1,2s-2.5,0.7-3.8,0.7s-2.6-0.2-3.8-0.7s-2.2-1.1-3.1-2c-0.9-0.9-1.6-1.9-2.1-3C72.3,291.5,72,290.2,72,288.9z
		 M75.5,288.9c0,1,0.2,1.8,0.5,2.6c0.3,0.8,0.8,1.5,1.4,2.1s1.2,1,2,1.3c0.8,0.3,1.6,0.5,2.4,0.5c0.9,0,1.7-0.2,2.4-0.5
		c0.8-0.3,1.4-0.8,2-1.3c0.6-0.6,1-1.3,1.4-2.1c0.3-0.8,0.5-1.7,0.5-2.6c0-0.9-0.2-1.8-0.5-2.6c-0.3-0.8-0.8-1.5-1.4-2.1
		c-0.6-0.6-1.2-1-2-1.3c-0.8-0.3-1.6-0.5-2.4-0.5c-0.9,0-1.7,0.2-2.4,0.5c-0.8,0.3-1.4,0.8-2,1.3s-1,1.3-1.4,2.1
		S75.5,287.9,75.5,288.9z"/>
	<path d="M95.5,273.8c0-0.8,0.4-1.2,1.2-1.2h1.1c0.8,0,1.2,0.4,1.2,1.2v7.4c0,0.2,0,0.4,0,0.6c0,0.2,0,0.3-0.1,0.5
		c0,0.2,0,0.3,0,0.4h0.1c0.3-0.6,0.8-1.2,1.3-1.7c0.5-0.4,1.1-0.8,1.9-1.2c0.8-0.4,1.7-0.5,2.8-0.5c1.2,0,2.3,0.2,3.3,0.7
		c1,0.5,1.8,1.1,2.5,1.9c0.7,0.8,1.2,1.8,1.6,3c0.4,1.2,0.6,2.5,0.6,3.9c0,1.5-0.2,2.8-0.6,4s-1,2.2-1.7,3c-0.7,0.8-1.6,1.5-2.6,1.9
		c-1,0.5-2.1,0.7-3.3,0.7c-1.1,0-2-0.2-2.7-0.5c-0.7-0.4-1.3-0.8-1.8-1.2c-0.6-0.5-1-1.1-1.3-1.7h-0.1c0,0.1,0,0.2,0,0.3
		c0,0.2,0.1,0.5,0.1,0.8v0.9c0,0.7-0.4,1-1.2,1h-0.9c-0.8,0-1.2-0.4-1.2-1.2V273.8z M98.9,288.9c0,0.8,0.1,1.6,0.3,2.4
		c0.2,0.8,0.5,1.5,1,2.1s0.9,1.1,1.6,1.5c0.6,0.4,1.4,0.5,2.2,0.5c0.7,0,1.4-0.1,2.1-0.4s1.2-0.7,1.7-1.3c0.5-0.6,0.9-1.2,1.1-2
		c0.3-0.8,0.4-1.7,0.4-2.7c0-1-0.1-1.9-0.4-2.7s-0.6-1.5-1.1-2s-1-1-1.6-1.3c-0.6-0.3-1.3-0.5-2.1-0.5c-0.7,0-1.4,0.1-2,0.4
		s-1.2,0.6-1.7,1.2c-0.5,0.5-0.9,1.2-1.2,2S98.9,287.8,98.9,288.9z"/>
	<path d="M117.9,276.1c-0.8,0-1.2-0.4-1.2-1.2v-1.2c0-0.8,0.4-1.2,1.2-1.2h1.2c0.8,0,1.2,0.4,1.2,1.2v1.2c0,0.8-0.4,1.2-1.2,1.2
		H117.9z M116.8,281c0-0.8,0.4-1.2,1.2-1.2h1.1c0.8,0,1.2,0.4,1.2,1.2v15.8c0,0.8-0.4,1.2-1.2,1.2H118c-0.8,0-1.2-0.4-1.2-1.2V281z"
		/>
	<path d="M124.1,288.9c0-1.4,0.3-2.6,0.8-3.8c0.5-1.2,1.2-2.2,2.1-3c0.9-0.9,1.9-1.5,3.1-2c1.2-0.5,2.5-0.7,3.8-0.7s2.6,0.2,3.8,0.7
		c1.2,0.5,2.2,1.1,3.1,2c0.9,0.9,1.6,1.9,2.1,3c0.5,1.2,0.8,2.4,0.8,3.8c0,1.4-0.3,2.7-0.8,3.8c-0.5,1.2-1.2,2.2-2.1,3
		c-0.9,0.9-1.9,1.5-3.1,2s-2.5,0.7-3.8,0.7s-2.6-0.2-3.8-0.7s-2.2-1.1-3.1-2c-0.9-0.9-1.6-1.9-2.1-3
		C124.4,291.5,124.1,290.2,124.1,288.9z M127.7,288.9c0,1,0.2,1.8,0.5,2.6c0.3,0.8,0.8,1.5,1.4,2.1s1.2,1,2,1.3
		c0.8,0.3,1.6,0.5,2.4,0.5c0.9,0,1.7-0.2,2.4-0.5c0.8-0.3,1.4-0.8,2-1.3c0.6-0.6,1-1.3,1.4-2.1c0.3-0.8,0.5-1.7,0.5-2.6
		c0-0.9-0.2-1.8-0.5-2.6c-0.3-0.8-0.8-1.5-1.4-2.1c-0.6-0.6-1.2-1-2-1.3c-0.8-0.3-1.6-0.5-2.4-0.5c-0.9,0-1.7,0.2-2.4,0.5
		c-0.8,0.3-1.4,0.8-2,1.3s-1,1.3-1.4,2.1S127.7,287.9,127.7,288.9z"/>
	<path d="M147.6,273.8c0-0.8,0.4-1.2,1.2-1.2h1.1c0.8,0,1.2,0.4,1.2,1.2v18.8c0,0.5,0,0.9,0.1,1.2c0.1,0.3,0.2,0.6,0.4,0.7
		s0.3,0.3,0.5,0.3c0.2,0.1,0.4,0.1,0.6,0.1c0.3,0,0.5,0.2,0.7,0.3s0.3,0.4,0.3,0.7v0.9c0,0.4-0.1,0.7-0.3,0.9
		c-0.2,0.2-0.5,0.3-1,0.3c-0.5,0-1-0.1-1.6-0.2c-0.6-0.1-1.1-0.3-1.6-0.7c-0.5-0.3-0.9-0.9-1.2-1.5c-0.3-0.7-0.5-1.6-0.5-2.7V273.8z
		"/>
	<path d="M155.7,288.9c0-1.4,0.3-2.6,0.8-3.8c0.5-1.2,1.2-2.2,2.1-3c0.9-0.9,1.9-1.5,3.1-2c1.2-0.5,2.5-0.7,3.8-0.7s2.6,0.2,3.8,0.7
		c1.2,0.5,2.2,1.1,3.1,2c0.9,0.9,1.6,1.9,2.1,3c0.5,1.2,0.8,2.4,0.8,3.8c0,1.4-0.3,2.7-0.8,3.8c-0.5,1.2-1.2,2.2-2.1,3
		c-0.9,0.9-1.9,1.5-3.1,2s-2.5,0.7-3.8,0.7s-2.6-0.2-3.8-0.7s-2.2-1.1-3.1-2c-0.9-0.9-1.6-1.9-2.1-3
		C156,291.5,155.7,290.2,155.7,288.9z M159.3,288.9c0,1,0.2,1.8,0.5,2.6c0.3,0.8,0.8,1.5,1.4,2.1s1.2,1,2,1.3
		c0.8,0.3,1.6,0.5,2.4,0.5c0.9,0,1.7-0.2,2.4-0.5c0.8-0.3,1.4-0.8,2-1.3c0.6-0.6,1-1.3,1.4-2.1c0.3-0.8,0.5-1.7,0.5-2.6
		c0-0.9-0.2-1.8-0.5-2.6c-0.3-0.8-0.8-1.5-1.4-2.1c-0.6-0.6-1.2-1-2-1.3c-0.8-0.3-1.6-0.5-2.4-0.5c-0.9,0-1.7,0.2-2.4,0.5
		c-0.8,0.3-1.4,0.8-2,1.3s-1,1.3-1.4,2.1S159.3,287.9,159.3,288.9z"/>
	<path d="M180.5,302.4c0.3-0.7,0.8-0.9,1.5-0.6c0.4,0.2,1,0.3,1.6,0.5c0.6,0.2,1.4,0.3,2.3,0.3c0.8,0,1.5-0.1,2.2-0.3
		c0.7-0.2,1.3-0.5,1.8-0.9s0.9-0.9,1.2-1.6c0.3-0.6,0.5-1.4,0.5-2.4v-1.6c0-0.1,0-0.3,0-0.4c0-0.1,0-0.3,0-0.4s0-0.2,0.1-0.4h-0.1
		c-0.5,1-1.2,1.7-2.1,2.3c-0.9,0.6-2,0.8-3.3,0.8c-1.3,0-2.4-0.2-3.4-0.7c-1-0.5-1.9-1.1-2.6-2c-0.7-0.8-1.2-1.8-1.6-3
		c-0.4-1.1-0.6-2.4-0.6-3.7c0-1.3,0.2-2.5,0.5-3.6s0.9-2.1,1.6-2.9c0.7-0.8,1.5-1.5,2.5-1.9s2.2-0.7,3.5-0.7c1.1,0,2.1,0.2,2.8,0.5
		c0.7,0.3,1.3,0.7,1.7,1.1c0.5,0.4,0.9,0.9,1.2,1.5h0.1c0,0,0-0.1,0-0.1c0-0.1,0-0.2,0-0.4v-1c0-0.7,0.4-1,1.2-1h0.9
		c0.8,0,1.2,0.4,1.2,1.2v16.3c0,1.5-0.3,2.8-0.8,3.8s-1.2,1.9-2.1,2.6c-0.9,0.7-1.8,1.2-2.9,1.5c-1.1,0.3-2.2,0.4-3.3,0.4
		c-1,0-2-0.1-2.9-0.3s-1.7-0.4-2.4-0.7c-0.7-0.3-0.9-0.8-0.6-1.6L180.5,302.4z M187,294.8c0.6,0,1.2-0.1,1.8-0.3
		c0.6-0.2,1.1-0.6,1.5-1c0.4-0.5,0.8-1.1,1.1-1.9s0.4-1.8,0.4-3c0-1.2-0.1-2.2-0.4-3c-0.3-0.8-0.6-1.4-1.1-1.9c-0.5-0.5-1-0.8-1.6-1
		c-0.6-0.2-1.3-0.3-1.9-0.3c-1.7,0-2.9,0.5-3.8,1.6c-0.9,1.1-1.3,2.5-1.3,4.3c0,2,0.5,3.5,1.4,4.7C184,294.2,185.3,294.8,187,294.8z
		"/>
	<path d="M201.4,276.1c-0.8,0-1.2-0.4-1.2-1.2v-1.2c0-0.8,0.4-1.2,1.2-1.2h1.2c0.8,0,1.2,0.4,1.2,1.2v1.2c0,0.8-0.4,1.2-1.2,1.2
		H201.4z M200.3,281c0-0.8,0.4-1.2,1.2-1.2h1.1c0.8,0,1.2,0.4,1.2,1.2v15.8c0,0.8-0.4,1.2-1.2,1.2h-1.1c-0.8,0-1.2-0.4-1.2-1.2V281z
		"/>
	<path d="M207.6,288.9c0-1.3,0.2-2.6,0.7-3.8s1.2-2.2,2-3c0.9-0.9,1.9-1.5,3.1-2c1.2-0.5,2.5-0.7,3.9-0.7c0.8,0,1.5,0.1,2.1,0.2
		c0.6,0.1,1.2,0.3,1.7,0.5s0.9,0.4,1.3,0.6c0.4,0.2,0.7,0.4,0.9,0.6c0.3,0.2,0.5,0.4,0.5,0.7c0,0.3-0.1,0.6-0.3,0.9l-0.4,0.5
		c-0.4,0.6-0.9,0.7-1.6,0.3c-0.4-0.3-0.9-0.6-1.6-0.9c-0.7-0.3-1.5-0.5-2.5-0.5c-0.9,0-1.8,0.2-2.5,0.5c-0.8,0.3-1.5,0.8-2,1.3
		s-1,1.3-1.3,2.1c-0.3,0.8-0.5,1.7-0.5,2.6c0,0.9,0.2,1.8,0.5,2.6c0.3,0.8,0.8,1.5,1.3,2.1c0.6,0.6,1.3,1.1,2,1.4
		c0.8,0.3,1.6,0.5,2.6,0.5c1.1,0,2-0.2,2.8-0.6s1.4-0.7,1.8-1.1c0.7-0.4,1.2-0.3,1.6,0.3l0.3,0.5c0.4,0.6,0.3,1.2-0.3,1.6
		c-0.3,0.2-0.6,0.5-1,0.7s-0.9,0.5-1.4,0.7c-0.5,0.2-1.2,0.4-1.8,0.6c-0.7,0.2-1.4,0.2-2.2,0.2c-1.4,0-2.8-0.2-3.9-0.7
		c-1.2-0.5-2.2-1.1-3.1-2c-0.9-0.9-1.5-1.9-2-3S207.6,290.3,207.6,288.9z"/>
	<path d="M226.5,293c0-0.9,0.2-1.7,0.5-2.4c0.4-0.7,0.8-1.3,1.4-1.7c0.6-0.5,1.3-0.8,2-1.1s1.5-0.5,2.4-0.6c0.8-0.1,1.6-0.2,2.4-0.3
		c0.8,0,1.5-0.1,2.1-0.1h0.9v-0.5c0-0.7-0.1-1.4-0.3-1.9c-0.2-0.5-0.5-0.9-0.8-1.2c-0.4-0.3-0.8-0.5-1.3-0.7c-0.5-0.1-1-0.2-1.5-0.2
		c-0.9,0-1.7,0.1-2.4,0.4c-0.7,0.3-1.3,0.5-1.7,0.8c-0.7,0.3-1.2,0.2-1.6-0.4l-0.3-0.5c-0.4-0.7-0.3-1.3,0.4-1.6
		c0.6-0.3,1.3-0.6,2.3-1c1-0.4,2.2-0.5,3.6-0.5c2.3,0,4,0.6,5.3,1.8s1.9,3,1.9,5.3v10.3c0,0.8-0.4,1.2-1.2,1.2h-0.9
		c-0.8,0-1.2-0.4-1.2-1.2v-1.1c0-0.2,0-0.3,0-0.5c0-0.1,0-0.3,0-0.4c0-0.1,0-0.2,0.1-0.3h-0.1c-0.4,0.7-0.8,1.4-1.4,1.9
		c-0.5,0.5-1.1,0.9-1.8,1.3c-0.7,0.4-1.7,0.6-2.7,0.6c-0.8,0-1.6-0.1-2.3-0.4c-0.7-0.2-1.4-0.6-2-1.1c-0.6-0.5-1-1-1.3-1.7
		C226.6,294.7,226.5,293.9,226.5,293z M230,292.7c0,0.7,0.3,1.4,0.8,2c0.6,0.6,1.4,0.9,2.5,0.9c0.8,0,1.5-0.2,2.1-0.5
		c0.6-0.3,1.1-0.8,1.5-1.4c0.4-0.6,0.7-1.2,1-1.9c0.2-0.7,0.3-1.4,0.3-2v-0.8h-0.9c-0.6,0-1.4,0-2.2,0.1c-0.8,0.1-1.6,0.2-2.4,0.5
		c-0.8,0.2-1.4,0.6-1.9,1.1C230.2,291.2,230,291.9,230,292.7z"/>
	<path d="M246.5,273.8c0-0.8,0.4-1.2,1.2-1.2h1.1c0.8,0,1.2,0.4,1.2,1.2v18.8c0,0.5,0,0.9,0.1,1.2s0.2,0.6,0.4,0.7s0.3,0.3,0.5,0.3
		c0.2,0.1,0.4,0.1,0.6,0.1c0.3,0,0.5,0.2,0.7,0.3s0.3,0.4,0.3,0.7v0.9c0,0.4-0.1,0.7-0.3,0.9c-0.2,0.2-0.5,0.3-1,0.3
		c-0.5,0-1-0.1-1.6-0.2c-0.6-0.1-1.1-0.3-1.6-0.7c-0.5-0.3-0.9-0.9-1.2-1.5c-0.3-0.7-0.5-1.6-0.5-2.7V273.8z"/>
	<path d="M271.4,275.7h-7.6c-0.8,0-1.2-0.4-1.2-1.2v-0.7c0-0.8,0.4-1.2,1.2-1.2h18.6c0.8,0,1.2,0.4,1.2,1.2v0.7
		c0,0.8-0.4,1.2-1.2,1.2h-7.6v21.1c0,0.8-0.4,1.2-1.2,1.2h-1.2c-0.8,0-1.2-0.4-1.2-1.2V275.7z"/>
	<path d="M282.3,288.9c0-1.4,0.2-2.7,0.7-3.9c0.5-1.2,1.1-2.2,1.9-3s1.8-1.5,2.9-1.9c1.1-0.5,2.3-0.7,3.6-0.7c1.2,0,2.4,0.2,3.3,0.6
		c1,0.4,1.8,1,2.5,1.8c0.7,0.8,1.2,1.7,1.5,2.7c0.3,1.1,0.5,2.2,0.5,3.5c0,0.3-0.1,0.6-0.3,0.9c-0.2,0.2-0.5,0.4-0.9,0.4h-12.2
		c0,1,0.3,1.9,0.6,2.6c0.4,0.8,0.8,1.4,1.4,1.9s1.2,0.9,2,1.2c0.7,0.3,1.5,0.4,2.3,0.4c1,0,1.9-0.2,2.6-0.5s1.3-0.6,1.7-1
		c0.7-0.4,1.3-0.3,1.6,0.4l0.3,0.5c0.2,0.3,0.3,0.6,0.2,0.9c-0.1,0.3-0.2,0.5-0.6,0.7c-0.3,0.2-0.6,0.4-1,0.6
		c-0.4,0.2-0.9,0.4-1.4,0.6c-0.5,0.2-1.1,0.4-1.7,0.5c-0.6,0.1-1.3,0.2-2,0.2c-1.4,0-2.7-0.2-3.9-0.7c-1.2-0.5-2.2-1.2-3-2
		c-0.9-0.9-1.5-1.9-2-3S282.3,290.2,282.3,288.9z M295.7,286.9c0-1.6-0.5-2.8-1.4-3.6c-0.9-0.8-1.9-1.2-3.1-1.2
		c-1.3,0-2.5,0.4-3.5,1.3c-1,0.9-1.6,2-1.9,3.6H295.7z"/>
	<path d="M302.3,296.5c-0.3-0.2-0.5-0.4-0.5-0.7c0-0.3,0.1-0.6,0.3-0.9l0.4-0.5c0.2-0.3,0.5-0.5,0.7-0.5c0.3,0,0.6,0.1,0.9,0.3
		c0.4,0.3,1,0.6,1.7,0.9c0.7,0.4,1.7,0.5,2.7,0.5c0.9,0,1.7-0.2,2.2-0.6s0.9-1,0.9-1.8c0-0.6-0.2-1.1-0.7-1.4
		c-0.5-0.4-1.1-0.7-1.7-1c-0.7-0.3-1.4-0.6-2.2-0.9c-0.8-0.3-1.6-0.6-2.2-1.1c-0.7-0.4-1.3-1-1.7-1.6c-0.5-0.6-0.7-1.5-0.7-2.5
		c0-0.9,0.2-1.6,0.5-2.3s0.8-1.2,1.4-1.6c0.6-0.4,1.3-0.8,2.1-1c0.8-0.2,1.7-0.3,2.5-0.3c1.3,0,2.3,0.2,3.1,0.5
		c0.8,0.3,1.5,0.6,1.9,0.9c0.3,0.2,0.5,0.4,0.6,0.7c0.1,0.3,0,0.6-0.2,0.9l-0.3,0.5c-0.3,0.6-0.9,0.7-1.6,0.4
		c-0.4-0.2-0.9-0.4-1.5-0.7c-0.6-0.2-1.3-0.4-2.2-0.4c-0.9,0-1.6,0.2-2.2,0.6c-0.6,0.4-0.9,1-0.9,1.7c0,0.6,0.2,1.1,0.7,1.5
		c0.5,0.4,1.1,0.7,1.7,1c0.7,0.3,1.4,0.6,2.2,0.9c0.8,0.3,1.6,0.6,2.2,1.1c0.7,0.4,1.3,1,1.7,1.6c0.5,0.7,0.7,1.5,0.7,2.5
		c0,0.8-0.2,1.5-0.5,2.1c-0.3,0.7-0.8,1.2-1.3,1.7c-0.6,0.5-1.3,0.9-2.1,1.1c-0.8,0.3-1.7,0.4-2.7,0.4c-0.8,0-1.5-0.1-2.1-0.2
		c-0.6-0.1-1.2-0.3-1.7-0.5s-1-0.4-1.3-0.6C302.9,296.9,302.5,296.6,302.3,296.5z"/>
	<path d="M319.7,282.8h-1.3c-0.8,0-1.2-0.4-1.2-1.2v-0.5c0-0.8,0.4-1.2,1.2-1.2h1.3v-4c0-0.8,0.4-1.2,1.2-1.2h1
		c0.8,0,1.2,0.4,1.2,1.2v4h3.2c0.8,0,1.2,0.4,1.2,1.2v0.5c0,0.8-0.4,1.2-1.2,1.2h-3.2v8.1c0,0.9,0.1,1.6,0.4,2.1
		c0.2,0.5,0.5,0.9,0.9,1.2s0.7,0.5,1.1,0.6c0.4,0.1,0.8,0.2,1.1,0.2c0.5,0,0.8,0.2,1,0.3c0.2,0.2,0.3,0.5,0.3,0.9v0.8
		c0,0.8-0.5,1.2-1.4,1.2c-0.9,0-1.8-0.1-2.6-0.4s-1.5-0.7-2.1-1.2s-1.1-1.2-1.5-2.1c-0.4-0.8-0.6-1.8-0.6-3V282.8z"/>
	<path d="M332.3,276.1c-0.8,0-1.2-0.4-1.2-1.2v-1.2c0-0.8,0.4-1.2,1.2-1.2h1.2c0.8,0,1.2,0.4,1.2,1.2v1.2c0,0.8-0.4,1.2-1.2,1.2
		H332.3z M331.1,281c0-0.8,0.4-1.2,1.2-1.2h1.1c0.8,0,1.2,0.4,1.2,1.2v15.8c0,0.8-0.4,1.2-1.2,1.2h-1.1c-0.8,0-1.2-0.4-1.2-1.2V281z
		"/>
	<path d="M339.7,281c0-0.8,0.4-1.2,1.2-1.2h1c0.8,0,1.2,0.4,1.2,1.2v1.6c0,0.2,0,0.5-0.1,0.7c0,0.1,0,0.2,0,0.3h0.1
		c0.2-0.4,0.4-0.8,0.8-1.3c0.4-0.5,0.8-1,1.4-1.4c0.6-0.4,1.2-0.8,2-1.1c0.8-0.3,1.7-0.5,2.7-0.5c2.2,0,3.7,0.6,4.7,1.7
		c1,1.2,1.5,2.9,1.5,5.2v10.5c0,0.8-0.4,1.2-1.2,1.2h-1.1c-0.8,0-1.2-0.4-1.2-1.2v-9.7c0-0.6,0-1.2-0.1-1.8c-0.1-0.6-0.2-1-0.5-1.4
		c-0.2-0.4-0.6-0.7-1-1c-0.5-0.2-1-0.4-1.8-0.4c-0.9,0-1.7,0.2-2.4,0.5c-0.7,0.3-1.4,0.8-1.9,1.4c-0.5,0.6-1,1.3-1.3,2.1
		c-0.3,0.8-0.4,1.7-0.4,2.6v7.5c0,0.8-0.4,1.2-1.2,1.2h-1.1c-0.8,0-1.2-0.4-1.2-1.2V281z"/>
	<path d="M362.2,302.4c0.3-0.7,0.8-0.9,1.5-0.6c0.4,0.2,1,0.3,1.6,0.5c0.6,0.2,1.4,0.3,2.3,0.3c0.8,0,1.5-0.1,2.2-0.3
		c0.7-0.2,1.3-0.5,1.8-0.9c0.5-0.4,0.9-0.9,1.2-1.6c0.3-0.6,0.5-1.4,0.5-2.4v-1.6c0-0.1,0-0.3,0-0.4c0-0.1,0-0.3,0-0.4
		c0-0.1,0-0.2,0.1-0.4h-0.1c-0.5,1-1.2,1.7-2.1,2.3c-0.9,0.6-2,0.8-3.3,0.8c-1.3,0-2.4-0.2-3.4-0.7c-1-0.5-1.9-1.1-2.6-2
		c-0.7-0.8-1.2-1.8-1.6-3c-0.4-1.1-0.6-2.4-0.6-3.7c0-1.3,0.2-2.5,0.5-3.6s0.9-2.1,1.6-2.9c0.7-0.8,1.5-1.5,2.5-1.9s2.2-0.7,3.5-0.7
		c1.1,0,2.1,0.2,2.8,0.5s1.3,0.7,1.7,1.1c0.5,0.4,0.9,0.9,1.2,1.5h0.1c0,0,0-0.1,0-0.1c0-0.1,0-0.2,0-0.4v-1c0-0.7,0.4-1,1.2-1h0.9
		c0.8,0,1.2,0.4,1.2,1.2v16.3c0,1.5-0.3,2.8-0.8,3.8c-0.5,1-1.2,1.9-2.1,2.6c-0.9,0.7-1.8,1.2-2.9,1.5c-1.1,0.3-2.2,0.4-3.3,0.4
		c-1,0-2-0.1-2.9-0.3s-1.7-0.4-2.4-0.7c-0.7-0.3-0.9-0.8-0.6-1.6L362.2,302.4z M368.7,294.8c0.6,0,1.2-0.1,1.8-0.3
		c0.6-0.2,1.1-0.6,1.5-1c0.4-0.5,0.8-1.1,1.1-1.9s0.4-1.8,0.4-3c0-1.2-0.1-2.2-0.4-3c-0.3-0.8-0.6-1.4-1.1-1.9c-0.5-0.5-1-0.8-1.6-1
		c-0.6-0.2-1.3-0.3-1.9-0.3c-1.7,0-2.9,0.5-3.8,1.6c-0.9,1.1-1.3,2.5-1.3,4.3c0,2,0.5,3.5,1.4,4.7
		C365.7,294.2,367,294.8,368.7,294.8z"/>
</g>
<g id="Group_148" transform="translate(2469.208 8039.459)">
	<g id="vFgWdE.tif" transform="translate(189.792 -189.227)">
		<g id="Group_148-2" transform="translate(0 0)">
			<path id="Path_132" class="st1" d="M-2502.9-7765.7c-1.7-0.2-3.3-0.4-4.9-0.8c-5.3-1.6-9.2-5.1-10-10.6
				c-0.7-4.7-0.7-9.4-0.1-14.1c1-6.8,6.8-11.8,13.7-11.7c22.5-0.1,45-0.1,67.5,0c7.3,0.1,13.3,5.7,13.9,12.9c0.4,3.7,0.4,7.5,0,11.2
				c-0.8,7.2-6.3,12.2-13.6,12.8c-0.6,0-1.1,0.1-1.9,0.1c0,5.9,0.2,11.7-0.1,17.4c-0.2,5,1.1,10,3.8,14.2
				c16.8,28.4,33.2,57,49.8,85.5c2.4,4.1,4.1,8.4,3.6,13.2c-0.8,7.9-5.8,12.6-13.1,14.7c-3.1,0.9-6.4,1.3-9.6,1.2
				c-44.1,0.1-88.2,0.1-132.3,0c-2.8,0.1-5.7-0.2-8.5-0.7c-8.9-2-13.6-9.2-11.5-18.1c0.8-3.5,2.1-6.8,3.8-10
				c16.1-30.2,32.3-60.3,48.5-90.4c0.8-1.5,1.2-3.2,1.2-4.8c0.1-6.7,0.1-13.4,0-20.1C-2502.8-7764.3-2502.9-7765-2502.9-7765.7z
				 M-2495.2-7773.6c0,0.9,0.1,1.7,0.1,2.4c0,9.8,0.1,19.6-0.1,29.3c0,1.8-0.5,3.5-1.3,5c-16.4,30.7-33,61.4-49.4,92.1
				c-1.6,3.2-2.6,6.6-3.1,10.1c-0.5,3.4,1.3,5.8,4.7,6.8c2.2,0.6,4.5,0.9,6.7,0.9c40.3,0,80.5,0.1,120.8,0c5.1,0,10.3,0.1,15.4,0
				c11-0.3,15.3-7.9,9.9-17.4c-0.1-0.1-0.2-0.3-0.3-0.4c-17.7-30.6-35.4-61.2-53-91.8c-0.8-1.5-1.2-3.1-1.2-4.8
				c-0.1-9.9-0.1-19.9-0.1-29.8v-2.4c3.2,0,6.1,0.1,8.9,0c3.6-0.1,6.5-2.9,6.7-6.5c0.1-2.9,0.1-5.9,0-8.8c0-3.5-2.7-6.3-6.2-6.3
				c-0.1,0-0.1,0-0.2,0c-22.3,0-44.7,0-67,0c-3.8-0.1-6.9,3-6.9,6.7c0,0.1,0,0.2,0,0.3c0,2.4,0,4.9,0,7.3c0.1,4.4,2.9,7.3,7.4,7.3
				C-2500.7-7773.6-2498.1-7773.6-2495.2-7773.6z"/>
			<path id="Path_133" class="st1" d="M-2471.1-7767.9c-5.4,0-10.9,0-16.3,0c-1.5,0-3,0-2.9-2c0-1.8,1.5-1.8,2.9-1.8
				c11,0,22,0,32.9,0c1.4,0,3,0,2.9,2c-0.1,1.8-1.5,1.8-2.9,1.8C-2460-7767.9-2465.6-7767.9-2471.1-7767.9z"/>
		</g>
	</g>
	<g id="Group_149" transform="translate(261.069 -222.736)">
		<path id="Path_134" class="st1" d="M-2544-7777.4c-7.1,0-12.8-5.7-12.8-12.8c0-7.1,5.7-12.8,12.8-12.8c7.1,0,12.8,5.7,12.8,12.8
			C-2531.2-7783.1-2536.9-7777.4-2544-7777.4z M-2544-7798.1c-4.4,0-7.9,3.5-7.9,7.9c0,4.4,3.5,7.9,7.9,7.9c4.4,0,7.9-3.5,7.9-7.9
			C-2536.1-7794.6-2539.6-7798.1-2544-7798.1L-2544-7798.1z"/>
	</g>
	<g id="Group_150" transform="translate(294.979 -236.459)">
		<path id="Path_135" class="st1" d="M-2547.5-7784.4c-5.1,0-9.3-4.2-9.3-9.3c0-5.1,4.2-9.3,9.3-9.3c5.1,0,9.3,4.2,9.3,9.3
			C-2538.2-7788.6-2542.4-7784.4-2547.5-7784.4z M-2547.5-7798.1c-2.4,0-4.4,2-4.4,4.4c0,2.4,2,4.4,4.4,4.4c2.4,0,4.4-2,4.4-4.4
			C-2543.1-7796.1-2545.1-7798.1-2547.5-7798.1L-2547.5-7798.1z"/>
	</g>
</g>
</svg>
