<?xml version="1.0" encoding="utf-8"?>
<!-- Generator: Adobe Illustrator 23.0.2, SVG Export Plug-In . SVG Version: 6.00 Build 0)  -->
<svg version="1.1" id="Layer_1" xmlns="http://www.w3.org/2000/svg" xmlns:xlink="http://www.w3.org/1999/xlink" x="0px" y="0px"
	 viewBox="0 0 294 279" style="enable-background:new 0 0 294 279;" xml:space="preserve">
<style type="text/css">
	.st0{enable-background:new    ;}
	.st1{fill:#0b5684;}
</style>
<g class="st0">
	<path d="M2.2,257.1c0-1.8,0.3-3.5,1-5.1c0.6-1.6,1.6-3,2.7-4.1c1.2-1.2,2.5-2.1,4.1-2.8c1.6-0.7,3.3-1,5.2-1c1.9,0,3.6,0.3,5.3,1
		c1.6,0.7,3,1.6,4.2,2.8s2.1,2.6,2.7,4.1c0.6,1.6,1,3.3,1,5.1c0,1.6-0.3,3.1-0.8,4.6s-1.3,2.7-2.2,3.8l2.1,2.1
		c0.6,0.5,0.6,1.1,0.1,1.7l-0.5,0.5c-0.6,0.6-1.1,0.6-1.6,0.1l-2.2-2.2c-1.1,0.9-2.3,1.6-3.7,2c-1.4,0.5-2.8,0.7-4.4,0.7
		c-1.9,0-3.6-0.3-5.2-1c-1.6-0.7-3-1.6-4.1-2.8s-2.1-2.6-2.7-4.2C2.5,260.7,2.2,259,2.2,257.1z M5.8,257.1c0,1.4,0.2,2.7,0.7,3.9
		s1.1,2.3,2,3.2c0.8,0.9,1.8,1.6,3,2.1c1.1,0.5,2.4,0.8,3.7,0.8c1,0,2-0.2,3-0.5c1-0.3,1.8-0.8,2.6-1.4l-2.1-2.1
		c-0.6-0.5-0.6-1.1-0.1-1.7L19,261c0.5-0.6,1.1-0.7,1.6-0.1l2.2,2.2c0.6-0.8,1-1.7,1.4-2.7c0.3-1,0.5-2.1,0.5-3.2
		c0-1.4-0.2-2.7-0.7-3.9c-0.5-1.2-1.1-2.2-2-3.1s-1.8-1.5-3-2c-1.2-0.5-2.4-0.7-3.7-0.7c-1.3,0-2.6,0.2-3.7,0.7
		c-1.1,0.5-2.1,1.2-3,2s-1.5,1.9-2,3.1C6.1,254.5,5.8,255.8,5.8,257.1z"/>
	<path d="M32.2,253c0-0.8,0.4-1.2,1.2-1.2h1.1c0.8,0,1.2,0.4,1.2,1.2v9.7c0,0.6,0,1.2,0.1,1.8c0.1,0.6,0.3,1,0.5,1.4s0.6,0.7,1,1
		c0.4,0.2,1,0.4,1.7,0.4c0.9,0,1.8-0.2,2.5-0.6c0.7-0.4,1.4-0.9,1.9-1.5c0.5-0.6,0.9-1.3,1.2-2.2c0.3-0.8,0.4-1.7,0.4-2.6V253
		c0-0.8,0.4-1.2,1.2-1.2h1.1c0.8,0,1.2,0.4,1.2,1.2v15.8c0,0.8-0.4,1.2-1.2,1.2h-1c-0.8,0-1.2-0.4-1.2-1.2v-1.6c0-0.1,0-0.2,0-0.4
		s0-0.2,0-0.3c0-0.1,0-0.2,0.1-0.3h-0.1c-0.2,0.5-0.5,0.9-0.9,1.4c-0.4,0.5-0.9,1-1.5,1.4c-0.6,0.4-1.2,0.8-2,1
		c-0.7,0.3-1.6,0.4-2.4,0.4c-2.1,0-3.6-0.6-4.6-1.7c-1-1.1-1.5-2.9-1.5-5.3V253z"/>
	<path d="M52.1,265c0-0.9,0.2-1.7,0.5-2.4c0.4-0.7,0.8-1.3,1.4-1.7c0.6-0.5,1.3-0.8,2-1.1s1.5-0.5,2.4-0.6c0.8-0.1,1.6-0.2,2.4-0.3
		c0.8,0,1.5-0.1,2.1-0.1h0.9v-0.5c0-0.7-0.1-1.4-0.3-1.9c-0.2-0.5-0.5-0.9-0.8-1.2c-0.4-0.3-0.8-0.5-1.3-0.7s-1-0.2-1.5-0.2
		c-0.9,0-1.7,0.1-2.4,0.4c-0.7,0.3-1.3,0.5-1.7,0.8c-0.7,0.3-1.2,0.2-1.6-0.4l-0.3-0.5c-0.4-0.7-0.3-1.3,0.4-1.6
		c0.6-0.3,1.3-0.6,2.3-1c1-0.4,2.2-0.5,3.6-0.5c2.3,0,4,0.6,5.3,1.8s1.9,3,1.9,5.3v10.3c0,0.8-0.4,1.2-1.2,1.2h-0.9
		c-0.8,0-1.2-0.4-1.2-1.2v-1.1c0-0.2,0-0.3,0-0.5c0-0.1,0-0.3,0-0.4c0-0.1,0-0.2,0.1-0.3h-0.1c-0.4,0.7-0.8,1.4-1.4,1.9
		c-0.5,0.5-1.1,0.9-1.8,1.3c-0.7,0.4-1.7,0.6-2.7,0.6c-0.8,0-1.6-0.1-2.3-0.4c-0.7-0.2-1.4-0.6-2-1.1s-1-1-1.3-1.7
		C52.2,266.7,52.1,265.9,52.1,265z M55.6,264.7c0,0.7,0.3,1.4,0.8,2c0.6,0.6,1.4,0.9,2.5,0.9c0.8,0,1.5-0.2,2.1-0.5
		c0.6-0.3,1.1-0.8,1.5-1.4c0.4-0.6,0.7-1.2,1-1.9c0.2-0.7,0.3-1.4,0.3-2v-0.8H63c-0.6,0-1.4,0-2.2,0.1c-0.8,0.1-1.6,0.2-2.4,0.5
		c-0.8,0.2-1.4,0.6-1.9,1.1C55.8,263.2,55.6,263.9,55.6,264.7z"/>
	<path d="M72.1,245.8c0-0.8,0.4-1.2,1.2-1.2h1.1c0.8,0,1.2,0.4,1.2,1.2v18.8c0,0.5,0,0.9,0.1,1.2c0.1,0.3,0.2,0.6,0.4,0.7
		s0.3,0.3,0.5,0.3c0.2,0.1,0.4,0.1,0.6,0.1c0.3,0,0.5,0.2,0.7,0.3c0.2,0.2,0.3,0.4,0.3,0.7v0.9c0,0.4-0.1,0.7-0.3,0.9
		c-0.2,0.2-0.5,0.3-1,0.3c-0.5,0-1-0.1-1.6-0.2c-0.6-0.1-1.1-0.3-1.6-0.7c-0.5-0.3-0.9-0.9-1.2-1.5c-0.3-0.7-0.5-1.6-0.5-2.7V245.8z
		"/>
	<path d="M82.7,248.1c-0.8,0-1.2-0.4-1.2-1.2v-1.2c0-0.8,0.4-1.2,1.2-1.2h1.2c0.8,0,1.2,0.4,1.2,1.2v1.2c0,0.8-0.4,1.2-1.2,1.2H82.7
		z M81.6,253c0-0.8,0.4-1.2,1.2-1.2h1.1c0.8,0,1.2,0.4,1.2,1.2v15.8c0,0.8-0.4,1.2-1.2,1.2h-1.1c-0.8,0-1.2-0.4-1.2-1.2V253z"/>
	<path d="M91,254.8h-1.3c-0.8,0-1.2-0.4-1.2-1.2v-0.5c0-0.8,0.4-1.2,1.2-1.2H91v-4c0-0.8,0.4-1.2,1.2-1.2h1c0.8,0,1.2,0.4,1.2,1.2v4
		h3.2c0.8,0,1.2,0.4,1.2,1.2v0.5c0,0.8-0.4,1.2-1.2,1.2h-3.2v8.1c0,0.9,0.1,1.6,0.4,2.1c0.2,0.5,0.5,0.9,0.9,1.2s0.7,0.5,1.1,0.6
		c0.4,0.1,0.8,0.2,1.1,0.2c0.5,0,0.8,0.2,1,0.3s0.3,0.5,0.3,0.9v0.8c0,0.8-0.5,1.2-1.4,1.2c-0.9,0-1.8-0.1-2.6-0.4
		c-0.8-0.3-1.5-0.7-2.1-1.2c-0.6-0.6-1.1-1.2-1.5-2.1c-0.4-0.8-0.6-1.8-0.6-3V254.8z"/>
	<path d="M101.2,274.2c0.2-0.1,0.5-0.1,0.8,0c0.2,0.1,0.4,0.2,0.6,0.3c0.2,0.1,0.5,0.1,0.8,0.1c0.7,0,1.4-0.3,1.9-0.8
		c0.5-0.6,0.9-1.2,1.2-1.9l0.9-2.1l-7.1-16.6c-0.2-0.4-0.2-0.7,0-1c0.2-0.3,0.5-0.4,0.9-0.4h1.4c0.7,0,1.1,0.3,1.3,0.9l4.3,11
		c0.1,0.2,0.1,0.5,0.2,0.7c0.1,0.3,0.1,0.5,0.2,0.7c0.1,0.3,0.1,0.5,0.2,0.8h0.1l0.2-0.7c0-0.2,0.1-0.5,0.2-0.7s0.2-0.5,0.3-0.7
		l4.1-11c0.2-0.6,0.7-1,1.3-1h1.3c0.4,0,0.7,0.1,0.9,0.4c0.2,0.3,0.2,0.6,0,1l-8,20.1c-0.6,1.4-1.3,2.5-2.4,3.3
		c-1,0.7-2.2,1.1-3.5,1.1c-0.5,0-1-0.1-1.4-0.2c-0.4-0.1-0.8-0.3-1.1-0.4c-0.3-0.1-0.5-0.4-0.6-0.6c-0.1-0.3-0.1-0.6,0.1-0.9
		l0.3-0.6C100.8,274.5,101,274.3,101.2,274.2z"/>
	<path d="M136,245.6c0.2-0.6,0.7-1,1.3-1h1.7c0.7,0,1.1,0.3,1.3,1l8.4,23.1c0.1,0.4,0.1,0.7-0.1,1c-0.2,0.3-0.5,0.4-0.9,0.4h-1.2
		c-0.7,0-1.1-0.3-1.3-1l-2.3-6.3h-9.6l-2.2,6.3c-0.2,0.6-0.6,1-1.3,1h-1.2c-0.5,0-0.8-0.1-0.9-0.4c-0.2-0.3-0.2-0.6,0-1L136,245.6z
		 M142,259.7l-2.8-8.1c-0.1-0.3-0.2-0.7-0.3-1.1c-0.1-0.4-0.2-0.8-0.3-1.2c-0.1-0.4-0.2-0.9-0.3-1.3h-0.1c-0.1,0.5-0.3,0.9-0.4,1.3
		c-0.1,0.4-0.2,0.8-0.3,1.2c-0.1,0.4-0.2,0.8-0.3,1.1l-2.8,8.1H142z"/>
	<path d="M151.1,268.5c-0.3-0.2-0.5-0.4-0.5-0.7c0-0.3,0.1-0.6,0.3-0.9l0.4-0.5c0.2-0.3,0.5-0.5,0.7-0.5c0.3,0,0.6,0.1,0.9,0.3
		c0.4,0.3,1,0.6,1.7,0.9c0.7,0.4,1.7,0.5,2.7,0.5c0.9,0,1.7-0.2,2.2-0.6c0.6-0.4,0.9-1,0.9-1.8c0-0.6-0.2-1.1-0.7-1.4
		c-0.5-0.4-1-0.7-1.7-1c-0.7-0.3-1.4-0.6-2.2-0.9c-0.8-0.3-1.6-0.6-2.2-1.1c-0.7-0.4-1.3-1-1.7-1.6c-0.5-0.6-0.7-1.5-0.7-2.5
		c0-0.9,0.2-1.6,0.5-2.3s0.8-1.2,1.4-1.6c0.6-0.4,1.3-0.8,2.1-1c0.8-0.2,1.6-0.3,2.5-0.3c1.3,0,2.3,0.2,3.1,0.5
		c0.8,0.3,1.5,0.6,1.9,0.9c0.3,0.2,0.5,0.4,0.6,0.7c0.1,0.3,0,0.6-0.2,0.9l-0.3,0.5c-0.3,0.6-0.9,0.7-1.6,0.4
		c-0.4-0.2-0.9-0.4-1.5-0.7c-0.6-0.2-1.4-0.4-2.2-0.4c-0.9,0-1.6,0.2-2.2,0.6c-0.6,0.4-0.9,1-0.9,1.7c0,0.6,0.2,1.1,0.7,1.5
		s1,0.7,1.7,1c0.7,0.3,1.4,0.6,2.2,0.9c0.8,0.3,1.6,0.6,2.2,1.1c0.7,0.4,1.3,1,1.7,1.6c0.5,0.7,0.7,1.5,0.7,2.5
		c0,0.8-0.2,1.5-0.5,2.1s-0.8,1.2-1.3,1.7c-0.6,0.5-1.3,0.9-2.1,1.1c-0.8,0.3-1.7,0.4-2.7,0.4c-0.8,0-1.5-0.1-2.1-0.2
		c-0.6-0.1-1.2-0.3-1.7-0.5s-1-0.4-1.4-0.6C151.7,268.9,151.4,268.6,151.1,268.5z"/>
	<path d="M166.9,268.5c-0.3-0.2-0.5-0.4-0.5-0.7c0-0.3,0.1-0.6,0.3-0.9l0.4-0.5c0.2-0.3,0.5-0.5,0.7-0.5c0.3,0,0.6,0.1,0.9,0.3
		c0.4,0.3,1,0.6,1.7,0.9c0.7,0.4,1.7,0.5,2.7,0.5c0.9,0,1.7-0.2,2.2-0.6s0.9-1,0.9-1.8c0-0.6-0.2-1.1-0.7-1.4
		c-0.5-0.4-1.1-0.7-1.7-1c-0.7-0.3-1.4-0.6-2.2-0.9c-0.8-0.3-1.6-0.6-2.2-1.1c-0.7-0.4-1.3-1-1.7-1.6c-0.5-0.6-0.7-1.5-0.7-2.5
		c0-0.9,0.2-1.6,0.5-2.3c0.3-0.7,0.8-1.2,1.4-1.6c0.6-0.4,1.3-0.8,2.1-1c0.8-0.2,1.7-0.3,2.5-0.3c1.3,0,2.3,0.2,3.2,0.5
		s1.5,0.6,1.9,0.9c0.3,0.2,0.5,0.4,0.6,0.7c0.1,0.3,0,0.6-0.2,0.9l-0.3,0.5c-0.3,0.6-0.9,0.7-1.6,0.4c-0.4-0.2-0.9-0.4-1.5-0.7
		c-0.6-0.2-1.3-0.4-2.2-0.4s-1.6,0.2-2.2,0.6c-0.6,0.4-0.9,1-0.9,1.7c0,0.6,0.2,1.1,0.7,1.5c0.5,0.4,1,0.7,1.7,1s1.4,0.6,2.2,0.9
		s1.6,0.6,2.2,1.1s1.3,1,1.7,1.6s0.7,1.5,0.7,2.5c0,0.8-0.2,1.5-0.5,2.1c-0.3,0.7-0.8,1.2-1.3,1.7c-0.6,0.5-1.3,0.9-2.1,1.1
		s-1.7,0.4-2.7,0.4c-0.8,0-1.5-0.1-2.1-0.2c-0.6-0.1-1.2-0.3-1.7-0.5s-1-0.4-1.3-0.6C167.5,268.9,167.2,268.6,166.9,268.5z"/>
	<path d="M183.2,253c0-0.8,0.4-1.2,1.2-1.2h1.1c0.8,0,1.2,0.4,1.2,1.2v9.7c0,0.6,0,1.2,0.1,1.8c0.1,0.6,0.3,1,0.5,1.4s0.6,0.7,1,1
		c0.4,0.2,1,0.4,1.7,0.4c0.9,0,1.8-0.2,2.5-0.6c0.7-0.4,1.4-0.9,1.9-1.5c0.5-0.6,0.9-1.3,1.2-2.2c0.3-0.8,0.4-1.7,0.4-2.6V253
		c0-0.8,0.4-1.2,1.2-1.2h1.1c0.8,0,1.2,0.4,1.2,1.2v15.8c0,0.8-0.4,1.2-1.2,1.2h-1c-0.8,0-1.2-0.4-1.2-1.2v-1.6c0-0.1,0-0.2,0-0.4
		s0-0.2,0-0.3c0-0.1,0-0.2,0.1-0.3h-0.1c-0.2,0.5-0.5,0.9-0.9,1.4c-0.4,0.5-0.9,1-1.5,1.4c-0.6,0.4-1.2,0.8-2,1
		c-0.7,0.3-1.6,0.4-2.4,0.4c-2.1,0-3.6-0.6-4.6-1.7s-1.5-2.9-1.5-5.3V253z"/>
	<path d="M204.6,253c0-0.8,0.4-1.2,1.2-1.2h1c0.8,0,1.2,0.4,1.2,1.2v2.1c0,0.2,0,0.4,0,0.5c0,0.2,0,0.3-0.1,0.4c0,0.1,0,0.3,0,0.4
		h0.1c0.2-0.6,0.5-1.2,0.8-1.8c0.3-0.6,0.8-1.1,1.2-1.5c0.5-0.4,1-0.8,1.6-1.1c0.6-0.3,1.2-0.4,1.9-0.4c0.8,0,1.2,0.4,1.2,1.2v1
		c0,0.8-0.4,1.2-1.3,1.2c-0.9,0-1.7,0.2-2.3,0.7c-0.7,0.4-1.2,1-1.7,1.7s-0.8,1.5-1,2.4s-0.3,1.8-0.3,2.7v6.3c0,0.8-0.4,1.2-1.2,1.2
		h-1.1c-0.8,0-1.2-0.4-1.2-1.2V253z"/>
	<path d="M215.7,265c0-0.9,0.2-1.7,0.5-2.4c0.4-0.7,0.8-1.3,1.4-1.7c0.6-0.5,1.3-0.8,2-1.1s1.5-0.5,2.4-0.6c0.8-0.1,1.6-0.2,2.4-0.3
		c0.8,0,1.5-0.1,2.1-0.1h0.9v-0.5c0-0.7-0.1-1.4-0.3-1.9c-0.2-0.5-0.5-0.9-0.8-1.2c-0.4-0.3-0.8-0.5-1.3-0.7s-1-0.2-1.5-0.2
		c-0.9,0-1.7,0.1-2.4,0.4c-0.7,0.3-1.3,0.5-1.7,0.8c-0.7,0.3-1.2,0.2-1.6-0.4l-0.3-0.5c-0.4-0.7-0.3-1.3,0.4-1.6
		c0.6-0.3,1.3-0.6,2.3-1c1-0.4,2.2-0.5,3.6-0.5c2.3,0,4,0.6,5.3,1.8s1.9,3,1.9,5.3v10.3c0,0.8-0.4,1.2-1.2,1.2H229
		c-0.8,0-1.2-0.4-1.2-1.2v-1.1c0-0.2,0-0.3,0-0.5c0-0.1,0-0.3,0-0.4c0-0.1,0-0.2,0.1-0.3h-0.1c-0.4,0.7-0.8,1.4-1.4,1.9
		c-0.5,0.5-1.1,0.9-1.8,1.3c-0.7,0.4-1.7,0.6-2.7,0.6c-0.8,0-1.6-0.1-2.3-0.4c-0.7-0.2-1.4-0.6-2-1.1s-1-1-1.3-1.7
		C215.9,266.7,215.7,265.9,215.7,265z M219.3,264.7c0,0.7,0.3,1.4,0.8,2c0.6,0.6,1.4,0.9,2.5,0.9c0.8,0,1.5-0.2,2.1-0.5
		c0.6-0.3,1.1-0.8,1.5-1.4c0.4-0.6,0.7-1.2,1-1.9c0.2-0.7,0.3-1.4,0.3-2v-0.8h-0.9c-0.6,0-1.4,0-2.2,0.1c-0.8,0.1-1.6,0.2-2.4,0.5
		c-0.8,0.2-1.4,0.6-1.9,1.1C219.5,263.2,219.3,263.9,219.3,264.7z"/>
	<path d="M235.8,253c0-0.8,0.4-1.2,1.2-1.2h1c0.8,0,1.2,0.4,1.2,1.2v1.6c0,0.2,0,0.5-0.1,0.7c0,0.1,0,0.2,0,0.3h0.1
		c0.2-0.4,0.4-0.8,0.8-1.3c0.4-0.5,0.8-1,1.4-1.4c0.6-0.4,1.2-0.8,2-1.1c0.8-0.3,1.7-0.5,2.7-0.5c2.2,0,3.7,0.6,4.7,1.7
		c1,1.2,1.5,2.9,1.5,5.2v10.5c0,0.8-0.4,1.2-1.2,1.2H250c-0.8,0-1.2-0.4-1.2-1.2v-9.7c0-0.6,0-1.2-0.1-1.8c-0.1-0.6-0.2-1-0.5-1.4
		c-0.2-0.4-0.6-0.7-1-1c-0.5-0.2-1-0.4-1.8-0.4c-0.9,0-1.7,0.2-2.4,0.5c-0.7,0.3-1.4,0.8-1.9,1.4c-0.5,0.6-1,1.3-1.3,2.1
		c-0.3,0.8-0.4,1.7-0.4,2.6v7.5c0,0.8-0.4,1.2-1.2,1.2H237c-0.8,0-1.2-0.4-1.2-1.2V253z"/>
	<path d="M255.9,260.9c0-1.3,0.2-2.6,0.7-3.8c0.5-1.2,1.2-2.2,2-3c0.9-0.9,1.9-1.5,3.1-2c1.2-0.5,2.5-0.7,3.9-0.7
		c0.8,0,1.5,0.1,2.1,0.2c0.6,0.1,1.2,0.3,1.7,0.5s0.9,0.4,1.3,0.6c0.4,0.2,0.7,0.4,0.9,0.6c0.3,0.2,0.5,0.4,0.5,0.7
		c0,0.3-0.1,0.6-0.3,0.9l-0.4,0.5c-0.4,0.6-0.9,0.7-1.6,0.3c-0.4-0.3-0.9-0.6-1.6-0.9c-0.7-0.3-1.5-0.5-2.5-0.5
		c-0.9,0-1.8,0.2-2.5,0.5c-0.8,0.3-1.5,0.8-2,1.3c-0.6,0.6-1,1.3-1.3,2.1c-0.3,0.8-0.5,1.7-0.5,2.6c0,0.9,0.2,1.8,0.5,2.6
		c0.3,0.8,0.8,1.5,1.3,2.1c0.6,0.6,1.3,1.1,2,1.4c0.8,0.3,1.6,0.5,2.6,0.5c1.1,0,2-0.2,2.8-0.6s1.4-0.7,1.8-1.1
		c0.7-0.4,1.2-0.3,1.6,0.3l0.3,0.5c0.4,0.6,0.3,1.2-0.3,1.6c-0.3,0.2-0.6,0.5-1,0.7c-0.4,0.3-0.9,0.5-1.4,0.7
		c-0.5,0.2-1.2,0.4-1.8,0.6c-0.7,0.2-1.4,0.2-2.2,0.2c-1.4,0-2.8-0.2-3.9-0.7c-1.2-0.5-2.2-1.1-3.1-2c-0.9-0.9-1.5-1.9-2-3
		C256.2,263.5,255.9,262.3,255.9,260.9z"/>
	<path d="M274.9,260.9c0-1.4,0.2-2.7,0.7-3.9c0.5-1.2,1.1-2.2,1.9-3c0.8-0.8,1.8-1.5,2.9-1.9s2.3-0.7,3.6-0.7c1.2,0,2.4,0.2,3.3,0.6
		c1,0.4,1.8,1,2.5,1.8c0.7,0.8,1.2,1.7,1.5,2.7c0.3,1.1,0.5,2.2,0.5,3.5c0,0.3-0.1,0.6-0.3,0.9c-0.2,0.2-0.5,0.4-0.9,0.4h-12.2
		c0,1,0.3,1.9,0.6,2.6c0.4,0.8,0.8,1.4,1.4,1.9s1.2,0.9,2,1.2c0.7,0.3,1.5,0.4,2.3,0.4c1,0,1.9-0.2,2.6-0.5c0.7-0.3,1.3-0.6,1.7-1
		c0.7-0.4,1.3-0.3,1.6,0.4l0.3,0.5c0.2,0.3,0.3,0.6,0.2,0.9c-0.1,0.3-0.2,0.5-0.6,0.7c-0.3,0.2-0.6,0.4-1,0.6
		c-0.4,0.2-0.9,0.4-1.4,0.6c-0.5,0.2-1.1,0.4-1.7,0.5c-0.6,0.1-1.3,0.2-2,0.2c-1.4,0-2.7-0.2-3.9-0.7c-1.2-0.5-2.2-1.2-3-2
		c-0.9-0.9-1.5-1.9-2-3S274.9,262.2,274.9,260.9z M288.4,258.9c0-1.6-0.5-2.8-1.3-3.6c-0.9-0.8-1.9-1.2-3.1-1.2
		c-1.3,0-2.5,0.4-3.5,1.3c-1,0.9-1.6,2-1.9,3.6H288.4z"/>
</g>
<g id="Group_144" transform="translate(2880.8 7321.3)">
	<path id="Path_106" class="st1" d="M-2658.6-7130.7h-36.8c-1.3,0-2.4,1-2.5,2.4c0,0,0,0,0,0.1c-0.1,1.2,0.8,2.3,2,2.5
		c0.1,0,0.3,0,0.4,0h36.8c1.4,0,2.5-1.1,2.5-2.5C-2656.2-7129.6-2657.3-7130.7-2658.6-7130.7L-2658.6-7130.7L-2658.6-7130.7z"/>
	<path id="Path_107" class="st1" d="M-2643.3-7130.7h-6.1c-1.3,0-2.4,1-2.5,2.4c0,0,0,0,0,0.1c-0.1,1.2,0.8,2.3,2,2.5
		c0.1,0,0.3,0,0.4,0h6.1c1.4,0,2.5-1.1,2.5-2.5C-2640.8-7129.6-2641.9-7130.7-2643.3-7130.7L-2643.3-7130.7z"/>
	<path id="Path_108" class="st1" d="M-2821.3-7279.6c1.3,0,2.4-1.1,2.5-2.4c0,0,0,0,0-0.1v-24.6c0-1.3-1-2.4-2.4-2.5c0,0,0,0-0.1,0
		c-1.2,0-2.2,1-2.2,2.2c0,0.1,0,0.2,0,0.3v24.6C-2823.5-7280.8-2822.5-7279.7-2821.3-7279.6z"/>
	<path id="Path_109" class="st1" d="M-2821.3-7313.3c1.3,0,2.4-1.1,2.5-2.4c0,0,0,0,0-0.1v-3.1c0-1.3-1-2.4-2.4-2.5c0,0,0,0-0.1,0
		c-1.2,0-2.2,1-2.2,2.2c0,0.1,0,0.2,0,0.3v3.1C-2823.5-7314.5-2822.5-7313.4-2821.3-7313.3z"/>
	<path id="Path_110" class="st1" d="M-2812.1-7205.9c1.3,0,2.4-1,2.5-2.4c0,0,0,0,0-0.1c0-1.2-1-2.2-2.2-2.2c-0.1,0-0.2,0-0.3,0
		h-3.7v-4c0-1.3-1-2.4-2.4-2.5c0,0,0,0-0.1,0c-1.2-0.1-2.3,0.8-2.5,2c0,0.1,0,0.3,0,0.4v4h-3.7c-1.3,0-2.4,1-2.5,2.4c0,0,0,0,0,0.1
		c-0.1,1.2,0.8,2.3,2,2.5c0.1,0,0.3,0,0.4,0h4v4c0,1.3,1,2.4,2.4,2.5c0,0,0,0,0.1,0c1.2,0.1,2.3-0.8,2.5-2c0-0.1,0-0.3,0-0.4v-4h3.4
		L-2812.1-7205.9z"/>
	<path id="Path_111" class="st1" d="M-2655.2-7308.7h-4v-4c0-1.3-1-2.4-2.4-2.5c0,0,0,0-0.1,0c-1.2-0.1-2.3,0.8-2.5,2
		c0,0.1,0,0.3,0,0.4v4h-4c-1.3,0-2.4,1-2.5,2.4c0,0,0,0,0,0.1c-0.1,1.2,0.8,2.3,2,2.5c0.1,0,0.3,0,0.4,0h4v4c0,1.3,1,2.4,2.4,2.5
		c0,0,0,0,0.1,0c1.2,0.1,2.3-0.8,2.5-2c0-0.1,0-0.3,0-0.4v-4.3h4c1.3,0,2.4-1,2.5-2.4c0,0,0,0,0-0.1c0-1.2-1-2.2-2.2-2.2
		C-2655.1-7308.7-2655.1-7308.7-2655.2-7308.7z"/>
	<path id="Path_112" class="st1" d="M-2703.7-7183.5c14.8,0,26.7-12.1,26.7-26.9c0,0,0-0.1,0-0.1c0-5.9,2.3-11.5,6.4-15.7
		c10.4-10.5,10.4-27.5,0-38.1c-4.2-4.1-6.5-9.8-6.4-15.7c0-14.9-12.1-27-27-27c-5.9,0-11.5-2.3-15.7-6.4
		c-10.5-10.4-27.5-10.4-38.1,0c-4.1,4.2-9.8,6.5-15.7,6.4c-14.9,0-27,12.1-27,27c0,5.9-2.3,11.5-6.4,15.7c-5.1,5-8,11.9-8,19
		c0,7.2,2.9,14,8,19c4.2,4.1,6.5,9.8,6.4,15.7c0,14.9,12.1,27,27,27c5.9,0,11.5,2.3,15.7,6.4c5,5.1,11.9,8,19,8c7.1-0.1,14-2.9,19-8
		C-2715.4-7181.2-2709.7-7183.5-2703.7-7183.5z M-2754.1-7180.4c-5-5.1-11.9-8-19-8c-12.3-0.1-22.3-10.1-22.4-22.4
		c0-7.2-2.9-14-8-19c-4.2-4.1-6.5-9.8-6.4-15.7c0-5.9,2.3-11.5,6.4-15.6c5.1-5,8-11.9,8-19c0.1-12.3,10.1-22.3,22.4-22.4
		c7.2,0,14-2.9,19-8c4.4-3.8,9.9-5.8,15.7-5.8c5.9,0,11.5,2.3,15.7,6.4c5.1,4.9,11.9,7.6,19,7.7c12.3,0.1,22.2,10.1,22.1,22.4
		c0,7.2,2.9,14,8,19c8.6,8.8,8.6,22.8,0,31.6c-5.1,5-8,11.9-8,19c-0.1,12.3-10.1,22.3-22.4,22.4c-7.2,0-14,2.9-19,8
		C-2731.4-7171.5-2745.5-7171.5-2754.1-7180.4L-2754.1-7180.4z"/>
	<path id="Path_113" class="st1" d="M-2684.1-7245.2c0-1.4-1.1-2.5-2.5-2.5s-2.5,1.1-2.5,2.5c0,27.3-22.4,49.7-50,50
		c-27.3,0-49.7-22.4-50-50c-0.1-7.4,1.6-14.8,4.9-21.5c8.9-17.2,26.7-28.2,45.7-28.2c21.1,0,39.9,13.3,47,33.1
		c0.5,1.2,1.8,1.9,3.1,1.5c0.5-0.2,1-0.7,1.2-1.2c0.3-0.6,0.3-1.3,0-1.8c-7.8-21.7-28.3-36.1-51.3-36.2c-10.4,0.1-20.6,3-29.5,8.6
		c-8.5,5.5-15.4,13.2-19.6,22.4c-3.4,7.4-5.2,15.5-5.2,23.6c0.1,30.1,24.5,54.6,54.6,54.6C-2708-7190.3-2684.1-7215.1-2684.1-7245.2
		z"/>
	<path id="Path_114" class="st1" d="M-2689-7255.3c-0.2,0.6-0.4,1.2-0.3,1.8c0.2,1,1.1,1.8,2.1,1.8h0.3c0.6,0,1.2-0.3,1.5-0.9
		c0.4-0.5,0.5-1.2,0.3-1.8c-0.3-1.3-1.5-2.1-2.8-1.8C-2688.1-7255.9-2688.5-7255.5-2689-7255.3z"/>
	<path id="Path_115" class="st1" d="M-2701.3-7257.2c-0.2-0.9-1-1.5-1.8-1.5l-23-3.4l-10.1-20.9c-0.9-1.5-3.4-1.5-4,0l-10.4,20.9
		l-22.7,3.4c-0.9,0-1.7,0.7-1.8,1.5c-0.3,0.9,0,1.8,0.6,2.5l16.6,16.3l-4.3,22.4c-0.1,0.8,0.3,1.6,0.9,2.1c0.7,0.6,1.6,0.7,2.5,0.3
		l20.6-10.7l20.6,10.7c0.2,0.2,0.6,0.3,0.9,0.3c0.6,0,0.9,0,1.2-0.3c0.6-0.6,0.9-1.3,0.9-2.1l-4-22.7l16.6-16.3
		C-2701.5-7255.3-2701.1-7256.2-2701.3-7257.2z M-2722.8-7241.2c-0.6,0.5-0.9,1.4-0.6,2.1l3.4,19.3l-17.5-9.2
		c-0.5-0.4-1.3-0.4-1.8,0l-17.5,9.2l3.4-19.3c0.1-0.8-0.1-1.5-0.6-2.1l-14.1-13.8l19.3-2.8c0.8-0.1,1.4-0.6,1.8-1.2l8.6-17.5
		l8.6,17.5c0.3,0.7,1,1.2,1.8,1.2l19.3,2.8L-2722.8-7241.2z"/>
	<path id="Path_116" class="st1" d="M-2753.8-7165.1c-1.1-0.5-2.5-0.1-3,1c0,0.1-0.1,0.1-0.1,0.2l-13.8,29.5l-8.6-23.9
		c-0.2-0.5-0.7-1-1.2-1.2c-0.6-0.3-1.3-0.3-1.8,0l-23.9,8.6l13.2-28.5c0.5-1.2,0-2.6-1.2-3.1c-1.2-0.5-2.6,0-3.1,1.2l-15.7,33.8
		c-0.4,0.8-0.3,1.8,0.3,2.5c0.6,0.7,1.6,0.9,2.5,0.6l27-9.8l9.8,27c0.3,0.9,1.2,1.5,2.1,1.5l0,0c0.9,0,1.7-0.5,2.1-1.2l16-34.4
		C-2751.9-7163.2-2752.5-7164.5-2753.8-7165.1z"/>
	<path id="Path_117" class="st1" d="M-2669.1-7145.4c0.7-0.6,0.8-1.7,0.3-2.5l-14.7-31.3c-0.5-1.2-1.9-1.7-3.1-1.2
		c-1.2,0.5-1.7,1.9-1.2,3.1l12.3,26.4l-23.9-8.6c-0.6-0.3-1.3-0.3-1.8,0c-0.5,0.2-1,0.7-1.2,1.2l-8.3,23.6l-12.9-27.9
		c-0.5-1.2-1.9-1.7-3.1-1.2s-1.7,1.9-1.2,3.1l15.3,32.8c0.4,0.8,1.2,1.3,2.1,1.2l0,0c1,0,1.8-0.6,2.1-1.5l9.8-27l27,9.8
		c0.6,0.7,1.6,0.8,2.2,0.2C-2669.2-7145.3-2669.1-7145.4-2669.1-7145.4z"/>
</g>
</svg>
