<svg xmlns="http://www.w3.org/2000/svg" width="158.17" height="228.665" viewBox="0 0 158.17 228.665">
  <g id="Group_152" data-name="Group 152" transform="translate(-1557 -7599)">
    <g id="Group_151" data-name="Group 151" transform="translate(1557 7599)">
      <g id="Group_122" data-name="Group 122" transform="translate(0)">
        <g id="Group_121" data-name="Group 121">
          <path id="Path_104" data-name="Path 104" d="M228.828,53.9c55.3,5.549,35.6,64.651,12.583,93.472-22.633,28.343-58.812,51.768-91.417,25.327C66.065,104.64,133.9,44.375,228.828,53.9Z" transform="translate(-106.377 -50.399)" fill="#db3d48"/>
          <path id="Path_103" data-name="Path 103" d="M228.828,53.9c55.3,5.549,35.6,64.651,12.583,93.472-22.633,28.343-58.812,51.768-91.417,25.327C66.065,104.64,133.9,44.375,228.828,53.9Z" transform="translate(-111.958 -52.906)" fill="#3a3a86"/>
        </g>
        <g id="Group_100" data-name="Group 100" transform="translate(47.262 25.078)">
          <g id="Group_99" data-name="Group 99">
            <g id="Group_98" data-name="Group 98" transform="translate(0 22.258)">
              <g id="Group_97" data-name="Group 97">
                <path id="Path_84" data-name="Path 84" d="M149.96,98.6c1.64.568,7.726,1.881,9.995-14.34,1.418-10.155-1.781-11.448-3.43-11.388s-4.14,1.715-5.216,7.052-4.064,19.763-7.127,34.536a21.183,21.183,0,0,1-35.788,10.96c10.281,7.988,22.645,1.418,25.095-13.033,2.208-10.8,3.31-16.207,4.336-21.121s3.606-19.275,17.645-21.292c13.878-2,20.236,10.96,13.656,21.5-5.679,7.746-15.251,9.512-19.164,7.122" transform="translate(-108.392 -69.764)" fill="#fff"/>
              </g>
              <path id="Path_85" data-name="Path 85" d="M125.018,79.824h0a1.223,1.223,0,0,1-1.227-1.564h0a1.267,1.267,0,0,0-.825-1.6,1.981,1.981,0,0,0-2.258,1.5l-.02.1a2.044,2.044,0,0,1-1.9,1.564h0A2.119,2.119,0,0,0,116.93,81a1.26,1.26,0,0,0,1.087,1.932h.1a1.225,1.225,0,0,1,1.227,1.564v0a1.271,1.271,0,0,0,.825,1.6,1.978,1.978,0,0,0,2.258-1.5l.02-.1a2.056,2.056,0,0,1,1.906-1.564h.1A2,2,0,0,0,126.366,81,1.247,1.247,0,0,0,125.018,79.824Z" transform="translate(-74.648 -42.16)" fill="#fff"/>
            </g>
            <path id="Path_86" data-name="Path 86" d="M139.619,75.459c-1.957,8.747,12.665,9.582,12.665-.749,0-5.261-5.79-9.371-13.37-9.371A27.051,27.051,0,0,0,117.17,75.545c-14.039,17.368-6.7,38.444,11.383,38.077-11.423-3.466-6.343-28.289-.3-37.327,5.412-8.667,10.829-8.787,13.329-8,4.175,1.328,2.832,7.912-1.962,7.163" transform="translate(-102.628 -65.339)" fill="#fff"/>
          </g>
        </g>
      </g>
    </g>
    <g id="Group_111" data-name="Group 111" transform="translate(1562.479 7758.729)">
      <g id="Group_106" data-name="Group 106" transform="translate(0 0)">
        <g id="Group_105" data-name="Group 105">
          <g id="Group_104" data-name="Group 104">
            <g id="Group_103" data-name="Group 103">
              <path id="Path_87" data-name="Path 87" d="M130.289,96.222a19.445,19.445,0,0,1,1.385-7.281,17.9,17.9,0,0,1,3.936-6.034,18.7,18.7,0,0,1,6.223-4.126,20.8,20.8,0,0,1,8.131-1.529,18.687,18.687,0,0,1,7.3,1.247,25.258,25.258,0,0,1,4.557,2.379,2.549,2.549,0,0,1,1.23,1.8,3.507,3.507,0,0,1-.672,2.241l-.919,1.419a2.46,2.46,0,0,1-1.735,1.316,4.061,4.061,0,0,1-2.235-.534,16.213,16.213,0,0,0-2.913-1.494,11.239,11.239,0,0,0-4.126-.707,11.392,11.392,0,0,0-4.545.885,10.441,10.441,0,0,0-3.482,2.425,10.909,10.909,0,0,0-2.2,3.551,11.876,11.876,0,0,0-.782,4.356,12.018,12.018,0,0,0,.782,4.333,10.822,10.822,0,0,0,2.235,3.626,10.958,10.958,0,0,0,3.557,2.494,12.683,12.683,0,0,0,9.482,0,20,20,0,0,0,3.344-1.856c1.787-.988,3.138-.7,4.04.919L163.6,107c.9,1.666.638,2.982-.782,3.971a19.519,19.519,0,0,1-2.063,1.356,17.562,17.562,0,0,1-2.845,1.35,23.668,23.668,0,0,1-3.62,1.075,21.135,21.135,0,0,1-4.321.414,21.435,21.435,0,0,1-8.131-1.488,18.5,18.5,0,0,1-6.223-4.04,18.045,18.045,0,0,1-3.936-6A19.987,19.987,0,0,1,130.289,96.222Z" transform="translate(-130.289 -67.852)" fill="#fff"/>
              <path id="Path_88" data-name="Path 88" d="M136.788,96.222a21.03,21.03,0,0,1,1.35-7.683,17.911,17.911,0,0,1,3.764-6,16.468,16.468,0,0,1,5.827-3.9,19.646,19.646,0,0,1,7.453-1.391,16.975,16.975,0,0,1,6.85,1.316,14.092,14.092,0,0,1,5.046,3.592,15.33,15.33,0,0,1,3.086,5.459,21.738,21.738,0,0,1,1.075,6.884,3.111,3.111,0,0,1-3.138,3.051H146.028a11.238,11.238,0,0,0,1.161,4.333,9.917,9.917,0,0,0,2.408,3.086,10.185,10.185,0,0,0,3.35,1.891,12.883,12.883,0,0,0,8.442-.138,20.818,20.818,0,0,0,3.31-1.557,3.608,3.608,0,0,1,2.3-.437,2.685,2.685,0,0,1,1.666,1.425l.85,1.419c.9,1.7.575,3.034-.988,3.971a28.307,28.307,0,0,1-4.908,2.373,19.807,19.807,0,0,1-7.384,1.247,20.6,20.6,0,0,1-8.1-1.523,18.718,18.718,0,0,1-6.137-4.109,18,18,0,0,1-3.867-6.051A19.649,19.649,0,0,1,136.788,96.222Zm25.5-4.126a8.784,8.784,0,0,0-2.166-5.93,6.848,6.848,0,0,0-5.149-2.1,8.04,8.04,0,0,0-5.792,2.2,10.157,10.157,0,0,0-2.948,5.827Z" transform="translate(-99.441 -67.852)" fill="#fff"/>
              <path id="Path_89" data-name="Path 89" d="M143.92,78.6c0-1.994.988-2.982,2.982-2.982h3.051a2.632,2.632,0,0,1,2.982,2.982v9.194c0,.465,0,.885-.034,1.23a7.619,7.619,0,0,1-.1.971,5.421,5.421,0,0,0-.069.85h.138a11.271,11.271,0,0,1,2.563-2.913,16,16,0,0,1,3.436-1.994,12.678,12.678,0,0,1,5.08-.919,15.315,15.315,0,0,1,6.568,1.391,14.61,14.61,0,0,1,5.045,3.862,17.808,17.808,0,0,1,3.224,5.965,24.384,24.384,0,0,1,1.144,7.666,22.834,22.834,0,0,1-1.282,7.85,18.2,18.2,0,0,1-3.482,6,14.815,14.815,0,0,1-5.252,3.833,15.938,15.938,0,0,1-6.54,1.35,12.963,12.963,0,0,1-5.183-.914,13.658,13.658,0,0,1-3.4-2.138,9.8,9.8,0,0,1-2.5-3.051h-.138a2.92,2.92,0,0,0,.069.419c0,.155.017.31.034.5a3.752,3.752,0,0,1,.034.644v1.144a2.392,2.392,0,0,1-.741,1.873,3.225,3.225,0,0,1-2.241.678H146.9c-1.994,0-2.982-.988-2.982-2.982Zm8.74,25.423a15.874,15.874,0,0,0,.569,4.247,10.736,10.736,0,0,0,1.7,3.609,9.109,9.109,0,0,0,2.81,2.511,7.535,7.535,0,0,0,3.862.954,8.54,8.54,0,0,0,3.592-.747,8.406,8.406,0,0,0,2.913-2.166,10.206,10.206,0,0,0,1.942-3.5,14.535,14.535,0,0,0,.707-4.77,15.22,15.22,0,0,0-.672-4.649,11.435,11.435,0,0,0-1.839-3.569,8.337,8.337,0,0,0-2.81-2.3,8.019,8.019,0,0,0-3.62-.816,8.783,8.783,0,0,0-3.4.672,8.292,8.292,0,0,0-2.913,2.069,10.374,10.374,0,0,0-2.063,3.465A14.311,14.311,0,0,0,152.661,104.022Z" transform="translate(-65.589 -75.617)" fill="#fff"/>
              <path id="Path_90" data-name="Path 90" d="M151.372,81.07c0-1.994.971-2.982,2.914-2.982h3.12c1.942,0,2.913.988,2.913,2.982v27.152c0,1.994-.971,2.982-2.913,2.982h-3.12c-1.942,0-2.914-.988-2.914-2.982Z" transform="translate(-30.218 -63.888)" fill="#fff"/>
            </g>
          </g>
          <path id="Path_91" data-name="Path 91" d="M154.286,83.645a2.575,2.575,0,0,1-2.914-2.913V78.6c0-1.994.971-2.982,2.914-2.982h3.12c1.994,0,2.982.988,2.982,2.982v2.132c0,1.942-.988,2.913-2.982,2.913Z" transform="translate(-30.218 -75.617)" fill="#fff"/>
        </g>
        <path id="Path_92" data-name="Path 92" d="M160.508,75.617h-3.12c-1.942,0-2.913.988-2.913,2.982v41.358c0,1.988.971,2.977,2.913,2.977h3.12c1.942,0,2.908-.988,2.908-2.977V78.6C163.416,76.605,162.444,75.617,160.508,75.617Z" transform="translate(-15.495 -75.617)" fill="#fff"/>
      </g>
      <g id="Group_110" data-name="Group 110" transform="translate(0 60.546)">
        <path id="Path_93" data-name="Path 93" d="M130.289,86.115a.261.261,0,0,1,.284-.3h2.616a2.815,2.815,0,0,1,1.048.187,2.327,2.327,0,0,1,.819.52,2.258,2.258,0,0,1,.527.8,2.581,2.581,0,0,1,.194,1.027,2.651,2.651,0,0,1-.194,1.041,2.254,2.254,0,0,1-.527.812,2.343,2.343,0,0,1-.819.527,2.816,2.816,0,0,1-1.048.187h-2.075v3a.258.258,0,0,1-.292.291h-.25a.256.256,0,0,1-.284-.291Zm2.79,4.06a1.855,1.855,0,0,0,1.36-.486,1.8,1.8,0,0,0,.493-1.339,1.721,1.721,0,0,0-.493-1.3,1.81,1.81,0,0,0-1.346-.486h-1.978v3.615Z" transform="translate(-130.289 -85.817)" fill="#fff"/>
        <path id="Path_94" data-name="Path 94" d="M157.952,86.053a.306.306,0,0,1,.326-.236h.4a.308.308,0,0,1,.319.236l2.887,7.814c.07.229-.014.34-.236.34h-.264a.3.3,0,0,1-.333-.236l-.9-2.436h-3.366l-.888,2.436a.3.3,0,0,1-.333.236h-.243c-.243,0-.326-.111-.257-.34Zm1.964,4.767-1.11-3.046a3.778,3.778,0,0,1-.167-.534c-.063-.215-.1-.4-.146-.562h-.021c-.042.16-.1.347-.16.562s-.118.389-.167.534l-1.124,3.046Z" transform="translate(-13.983 -85.817)" fill="#fff"/>
        <path id="Path_95" data-name="Path 95" d="M135.185,86.115a.263.263,0,0,1,.291-.3h.25a.261.261,0,0,1,.285.3v3.525h4.872V86.115c0-.194.09-.3.284-.3h.243a.263.263,0,0,1,.291.3v7.8a.258.258,0,0,1-.291.291h-.243c-.194,0-.284-.1-.284-.291V90.376h-4.872v3.539a.256.256,0,0,1-.285.291h-.25a.258.258,0,0,1-.291-.291Z" transform="translate(-107.934 -85.817)" fill="#fff"/>
        <path id="Path_96" data-name="Path 96" d="M143.048,86.053a.294.294,0,0,1,.319-.236h.4a.308.308,0,0,1,.319.236l2.887,7.814c.069.229-.014.34-.236.34h-.264a.294.294,0,0,1-.333-.236l-.9-2.436h-3.366l-.881,2.436a.312.312,0,0,1-.333.236h-.25c-.243,0-.326-.111-.257-.34ZM145,90.82l-1.11-3.046a4.969,4.969,0,0,1-.167-.534l-.146-.562h-.021c-.042.16-.1.347-.16.562s-.118.389-.167.534l-1.117,3.046Z" transform="translate(-85.631 -85.817)" fill="#fff"/>
        <path id="Path_97" data-name="Path 97" d="M145.19,86.115c0-.194.09-.3.284-.3h2.269a6.419,6.419,0,0,1,.9.055,2.4,2.4,0,0,1,.631.18,2.107,2.107,0,0,1,.916.84,2.459,2.459,0,0,1,.319,1.263,2.514,2.514,0,0,1-.43,1.485,2.011,2.011,0,0,1-1.152.833v.021l.076.125.139.215,1.631,3.033a.26.26,0,0,1,.028.25.254.254,0,0,1-.229.09h-.312a.343.343,0,0,1-.34-.2l-1.8-3.331h-2.11v3.241a.256.256,0,0,1-.285.291h-.25c-.194,0-.284-.1-.284-.291ZM148,89.932a1.579,1.579,0,0,0,1.207-.472,1.793,1.793,0,0,0,.451-1.277,1.71,1.71,0,0,0-.229-.888,1.4,1.4,0,0,0-.652-.583,1.763,1.763,0,0,0-.437-.118,4.217,4.217,0,0,0-.659-.035h-1.672v3.373Z" transform="translate(-61.837 -85.817)" fill="#fff"/>
        <path id="Path_98" data-name="Path 98" d="M150.607,86.095c0-.187.1-.278.3-.278h.319a.358.358,0,0,1,.347.229l2.1,4.705.215.534.2.493h.021c.042-.132.1-.291.18-.493s.16-.382.229-.534l2.1-4.705a.359.359,0,0,1,.347-.229h.319a.292.292,0,0,1,.3.278l.631,7.807a.257.257,0,0,1-.285.305H157.7c-.2,0-.3-.09-.3-.271l-.444-5.6q-.01-.114-.021-.271l-.007-.319-.007-.312V87.17h-.028l-.09.271-.111.319-.118.305-.1.271-1.888,4.08a.329.329,0,0,1-.333.229h-.291a.325.325,0,0,1-.347-.229l-1.874-4.08c-.063-.146-.139-.347-.222-.583s-.16-.444-.215-.611h-.028l-.007.6c0,.243-.014.437-.028.6l-.444,5.6a.263.263,0,0,1-.3.271h-.236c-.215,0-.312-.1-.284-.305Z" transform="translate(-39.368 -85.817)" fill="#fff"/>
      </g>
    </g>
  </g>
</svg>
