<?xml version="1.0" encoding="utf-8"?>
<!-- Generator: Adobe Illustrator 23.0.2, SVG Export Plug-In . SVG Version: 6.00 Build 0)  -->
<svg version="1.1" id="Layer_1" xmlns="http://www.w3.org/2000/svg" xmlns:xlink="http://www.w3.org/1999/xlink" x="0px" y="0px"
	 viewBox="0 0 255.12 147.4" style="enable-background:new 0 0 255.12 147.4;" xml:space="preserve">
<style type="text/css">
	.st0{fill:#DB414C;}
	.st1{fill:#3D3C92;}
	.st2{fill:#FFFFFF;}
	.st3{fill:#282829;}
</style>
<g>
	<g id="Group_151_2_" transform="translate(1557 7599)">
		<g id="Group_122_2_" transform="translate(0)">
			<g id="Group_121_2_">
				<path id="Path_104_3_" class="st0" d="M-1435.82-7541.8c14.38,1.44,9.26,16.81,3.27,24.31c-5.89,7.37-15.3,13.46-23.78,6.59
					C-1478.15-7528.6-1460.51-7544.27-1435.82-7541.8z"/>
				<path id="Path_103_3_" class="st1" d="M-1437.27-7542.45c14.38,1.44,9.26,16.82,3.27,24.31c-5.89,7.37-15.3,13.46-23.78,6.59
					C-1479.6-7529.25-1461.96-7544.92-1437.27-7542.45z"/>
			</g>
			<g id="Group_100_2_" transform="translate(47.262 25.078)">
				<g id="Group_99_2_">
					<g id="Group_98_2_" transform="translate(0 22.258)">
						<g id="Group_97_2_">
							<path id="Path_84_2_" class="st2" d="M-1491.82-7570.23c0.43,0.15,2.01,0.49,2.6-3.73c0.37-2.64-0.46-2.98-0.89-2.96
								c-0.43,0.02-1.08,0.45-1.36,1.83c-0.28,1.39-1.06,5.14-1.85,8.98c-0.58,2.99-3.46,4.94-6.45,4.37
								c-1.08-0.21-2.08-0.74-2.86-1.52c2.67,2.08,5.89,0.37,6.53-3.39c0.57-2.81,0.86-4.22,1.13-5.49
								c0.27-1.28,0.94-5.01,4.59-5.54c3.61-0.52,5.26,2.85,3.55,5.59C-1488.32-7570.07-1490.8-7569.61-1491.82-7570.23"/>
						</g>
						<path id="Path_85_2_" class="st2" d="M-1489.35-7567.57L-1489.35-7567.57c-0.18,0.01-0.32-0.13-0.33-0.3
							c0-0.03,0-0.07,0.01-0.1l0,0c0.06-0.17-0.04-0.36-0.21-0.42c0,0,0,0,0,0c-0.27-0.04-0.53,0.13-0.59,0.39l-0.01,0.03
							c-0.06,0.23-0.26,0.4-0.49,0.41l0,0c-0.21,0-0.39,0.12-0.48,0.31c-0.1,0.15-0.05,0.36,0.1,0.45c0.05,0.03,0.12,0.05,0.18,0.05
							h0.03c0.18-0.01,0.32,0.13,0.33,0.31c0,0.03,0,0.07-0.01,0.1l0,0c-0.06,0.17,0.04,0.36,0.21,0.42c0,0,0,0,0,0
							c0.27,0.05,0.53-0.13,0.59-0.39l0.01-0.03c0.06-0.23,0.26-0.4,0.5-0.41h0.03c0.27-0.01,0.49-0.23,0.5-0.5
							C-1489.01-7567.45-1489.17-7567.58-1489.35-7567.57C-1489.35-7567.58-1489.35-7567.58-1489.35-7567.57z"/>
					</g>
					<path id="Path_86_2_" class="st2" d="M-1493.01-7558.63c-0.51,2.27,3.29,2.49,3.29-0.19c0-1.37-1.51-2.44-3.48-2.44
						c-2.2-0.05-4.29,0.94-5.66,2.65c-3.65,4.52-1.74,10,2.96,9.9c-2.97-0.9-1.65-7.36-0.08-9.71c1.41-2.25,2.82-2.29,3.47-2.08
						C-1491.42-7560.15-1491.77-7558.44-1493.01-7558.63"/>
				</g>
			</g>
		</g>
	</g>
	<g id="Group_111_2_" transform="translate(1562.479 7758.729)">
		<g id="Group_106_2_" transform="translate(0 0)">
			<g id="Group_105_2_">
				<g id="Group_104_2_">
					<g id="Group_103_2_">
						<path id="Path_87_2_" class="st3" d="M-1432-7677.31c0-0.6,0.11-1.19,0.33-1.74c0.21-0.54,0.53-1.03,0.94-1.44
							c0.42-0.42,0.93-0.76,1.49-0.98c0.62-0.25,1.28-0.37,1.94-0.36c0.59-0.02,1.19,0.08,1.74,0.3c0.38,0.15,0.75,0.34,1.09,0.57
							c0.16,0.09,0.26,0.25,0.29,0.43c0.01,0.19-0.05,0.38-0.16,0.54l-0.22,0.34c-0.08,0.16-0.23,0.28-0.41,0.31
							c-0.19,0.01-0.37-0.03-0.53-0.13c-0.22-0.14-0.45-0.26-0.7-0.36c-0.31-0.12-0.65-0.17-0.98-0.17c-0.37,0-0.74,0.07-1.08,0.21
							c-0.31,0.13-0.6,0.33-0.83,0.58c-0.23,0.25-0.41,0.53-0.53,0.85c-0.13,0.33-0.19,0.68-0.19,1.04c0,0.35,0.06,0.7,0.19,1.03
							c0.12,0.32,0.3,0.62,0.53,0.87c0.24,0.25,0.53,0.46,0.85,0.6c0.73,0.29,1.54,0.29,2.26,0c0.28-0.12,0.55-0.27,0.8-0.44
							c0.43-0.24,0.75-0.17,0.96,0.22l0.17,0.32c0.21,0.4,0.15,0.71-0.19,0.95c-0.16,0.12-0.32,0.23-0.49,0.32
							c-0.22,0.13-0.44,0.24-0.68,0.32c-0.28,0.11-0.57,0.19-0.86,0.26c-0.34,0.07-0.69,0.1-1.03,0.1
							c-0.66,0.01-1.32-0.11-1.94-0.36c-0.56-0.22-1.06-0.55-1.49-0.96c-0.41-0.41-0.73-0.9-0.94-1.43
							C-1431.89-7676.1-1432.01-7676.7-1432-7677.31z"/>
						<path id="Path_88_2_" class="st3" d="M-1423.09-7677.31c-0.01-0.63,0.1-1.25,0.32-1.83c0.2-0.53,0.51-1.02,0.9-1.43
							c0.39-0.41,0.87-0.72,1.39-0.93c0.57-0.23,1.17-0.34,1.78-0.33c0.56-0.01,1.12,0.1,1.64,0.31c0.46,0.19,0.87,0.49,1.2,0.86
							c0.33,0.38,0.58,0.82,0.74,1.3c0.17,0.53,0.26,1.08,0.26,1.64c-0.01,0.41-0.34,0.73-0.75,0.73h-5.27
							c0.02,0.36,0.12,0.71,0.28,1.03c0.14,0.28,0.34,0.53,0.57,0.74c0.24,0.2,0.51,0.35,0.8,0.45c0.66,0.22,1.37,0.2,2.02-0.03
							c0.27-0.1,0.54-0.23,0.79-0.37c0.17-0.09,0.36-0.13,0.55-0.1c0.17,0.05,0.32,0.18,0.4,0.34l0.2,0.34
							c0.21,0.41,0.14,0.72-0.24,0.95c-0.37,0.23-0.76,0.42-1.17,0.57c-0.56,0.21-1.16,0.31-1.76,0.3
							c-0.66,0.01-1.32-0.11-1.93-0.36c-0.55-0.23-1.05-0.56-1.46-0.98c-0.4-0.41-0.72-0.91-0.92-1.44
							C-1422.98-7676.12-1423.09-7676.71-1423.09-7677.31z M-1417-7678.29c0.01-0.52-0.18-1.02-0.52-1.42
							c-0.32-0.33-0.77-0.52-1.23-0.5c-0.51-0.02-1.01,0.17-1.38,0.52c-0.38,0.37-0.63,0.86-0.7,1.39L-1417-7678.29z"/>
						<path id="Path_89_2_" class="st3" d="M-1413.31-7683.37c0-0.48,0.24-0.71,0.71-0.71h0.73c0.34-0.05,0.66,0.19,0.71,0.53
							c0.01,0.06,0.01,0.12,0,0.18v2.19c0,0.11,0,0.21-0.01,0.29c0,0.08-0.01,0.15-0.02,0.23c-0.01,0.07-0.02,0.14-0.02,0.2h0.03
							c0.16-0.27,0.37-0.5,0.61-0.7c0.25-0.19,0.53-0.35,0.82-0.48c0.38-0.16,0.8-0.23,1.21-0.22c0.54-0.01,1.08,0.11,1.57,0.33
							c0.46,0.22,0.88,0.53,1.2,0.92c0.35,0.42,0.61,0.9,0.77,1.42c0.19,0.59,0.28,1.21,0.27,1.83c0.01,0.64-0.1,1.27-0.31,1.87
							c-0.18,0.53-0.46,1.01-0.83,1.43c-0.34,0.39-0.77,0.71-1.25,0.92c-0.49,0.22-1.02,0.33-1.56,0.32
							c-0.42,0.01-0.84-0.06-1.24-0.22c-0.29-0.13-0.57-0.3-0.81-0.51c-0.25-0.2-0.45-0.45-0.6-0.73h-0.03
							c0,0.03,0.01,0.07,0.02,0.1c0,0.04,0,0.07,0.01,0.12c0.01,0.05,0.01,0.1,0.01,0.15v0.27c0.01,0.17-0.06,0.33-0.18,0.45
							c-0.15,0.12-0.34,0.18-0.53,0.16h-0.57c-0.48,0-0.71-0.24-0.71-0.71L-1413.31-7683.37z M-1411.22-7677.3
							c0,0.34,0.05,0.68,0.14,1.01c0.08,0.31,0.22,0.6,0.41,0.86c0.18,0.24,0.41,0.45,0.67,0.6c0.28,0.16,0.6,0.24,0.92,0.23
							c0.3,0,0.59-0.06,0.86-0.18c0.27-0.12,0.5-0.3,0.7-0.52c0.21-0.25,0.37-0.53,0.46-0.84c0.12-0.37,0.18-0.75,0.17-1.14
							c0-0.38-0.05-0.75-0.16-1.11c-0.09-0.31-0.24-0.6-0.44-0.85c-0.18-0.23-0.41-0.42-0.67-0.55c-0.27-0.13-0.56-0.2-0.86-0.19
							c-0.28,0-0.55,0.05-0.81,0.16c-0.26,0.11-0.5,0.28-0.7,0.49c-0.22,0.24-0.38,0.52-0.49,0.83
							C-1411.17-7678.11-1411.23-7677.7-1411.22-7677.3L-1411.22-7677.3z"/>
						<path id="Path_90_2_" class="st3" d="M-1403.09-7679.98c0-0.48,0.23-0.71,0.7-0.71h0.74c0.46,0,0.7,0.24,0.7,0.71v6.48
							c0,0.48-0.23,0.71-0.7,0.71h-0.74c-0.46,0-0.7-0.24-0.7-0.71V-7679.98z"/>
					</g>
				</g>
				<path id="Path_91_2_" class="st3" d="M-1402.39-7682.16c-0.34,0.05-0.65-0.19-0.7-0.52c-0.01-0.06-0.01-0.12,0-0.17v-0.51
					c0-0.48,0.23-0.71,0.7-0.71h0.74c0.48,0,0.71,0.24,0.71,0.71v0.51c0,0.46-0.24,0.7-0.71,0.7H-1402.39z"/>
			</g>
			<path id="Path_92_2_" class="st3" d="M-1397.39-7684.08h-0.74c-0.46,0-0.7,0.24-0.7,0.71v9.87c0,0.47,0.23,0.71,0.7,0.71h0.74
				c0.46,0,0.69-0.24,0.69-0.71v-9.87C-1396.7-7683.84-1396.93-7684.08-1397.39-7684.08z"/>
		</g>
		<g id="Group_110_2_" transform="translate(0 60.546)">
			<path id="Path_93_2_" class="st3" d="M-1432-7730.1c-0.01-0.03,0.02-0.07,0.05-0.07c0.01,0,0.01,0,0.02,0h0.62
				c0.09,0,0.17,0.01,0.25,0.04c0.07,0.03,0.14,0.07,0.2,0.12c0.06,0.05,0.1,0.12,0.13,0.19c0.03,0.08,0.05,0.16,0.05,0.25
				c0,0.09-0.01,0.17-0.05,0.25c-0.03,0.07-0.07,0.14-0.13,0.19c-0.06,0.06-0.12,0.1-0.2,0.13c-0.08,0.03-0.16,0.05-0.25,0.04h-0.5
				v0.72c0,0.03-0.02,0.06-0.05,0.07c-0.01,0-0.01,0-0.02,0h-0.06c-0.03,0-0.06-0.02-0.07-0.05c0-0.01,0-0.01,0-0.02L-1432-7730.1z
				 M-1431.34-7729.13c0.12,0.01,0.24-0.04,0.32-0.12c0.08-0.09,0.12-0.2,0.12-0.32c0.01-0.12-0.04-0.23-0.12-0.31
				c-0.09-0.08-0.2-0.12-0.32-0.12h-0.47v0.86L-1431.34-7729.13z"/>
			<path id="Path_94_2_" class="st3" d="M-1397.64-7730.12c0.01-0.04,0.04-0.06,0.08-0.06h0.1c0.04,0,0.07,0.02,0.08,0.06l0.69,1.87
				c0.02,0.05,0,0.08-0.06,0.08h-0.06c-0.04,0-0.07-0.02-0.08-0.06l-0.21-0.58h-0.8l-0.21,0.58c-0.01,0.04-0.04,0.06-0.08,0.06
				h-0.06c-0.06,0-0.08-0.03-0.06-0.08L-1397.64-7730.12z M-1397.17-7728.98l-0.27-0.73c-0.02-0.04-0.03-0.08-0.04-0.13
				c-0.02-0.05-0.02-0.1-0.03-0.13h-0.01c-0.01,0.04-0.02,0.08-0.04,0.13c-0.01,0.05-0.03,0.09-0.04,0.13l-0.27,0.73H-1397.17z"/>
			<path id="Path_95_2_" class="st3" d="M-1425.5-7730.1c-0.01-0.03,0.02-0.07,0.05-0.07c0.01,0,0.01,0,0.02,0h0.06
				c0.03,0,0.06,0.02,0.07,0.06c0,0.01,0,0.01,0,0.02v0.84h1.16v-0.84c0-0.05,0.02-0.07,0.07-0.07h0.06c0.03,0,0.07,0.02,0.07,0.05
				c0,0.01,0,0.01,0,0.02v1.86c0,0.03-0.02,0.06-0.05,0.07c-0.01,0-0.01,0-0.02,0h-0.06c-0.05,0-0.07-0.02-0.07-0.07v-0.84h-1.16
				v0.84c0,0.03-0.02,0.06-0.05,0.07c-0.01,0-0.01,0-0.02,0h-0.06c-0.03,0-0.06-0.02-0.07-0.05c0-0.01,0-0.01,0-0.02V-7730.1z"/>
			<path id="Path_96_2_" class="st3" d="M-1418.3-7730.12c0.01-0.04,0.04-0.06,0.08-0.06h0.1c0.04,0,0.07,0.02,0.08,0.06l0.69,1.87
				c0.02,0.05,0,0.08-0.06,0.08h-0.06c-0.04,0.01-0.07-0.02-0.08-0.06l-0.21-0.58h-0.8l-0.21,0.58c-0.01,0.04-0.04,0.06-0.08,0.06
				h-0.06c-0.06,0-0.08-0.03-0.06-0.08L-1418.3-7730.12z M-1417.83-7728.98l-0.26-0.73c-0.02-0.04-0.03-0.08-0.04-0.13l-0.03-0.13
				h-0.01c-0.01,0.04-0.02,0.08-0.04,0.13s-0.03,0.09-0.04,0.13l-0.27,0.73H-1417.83z"/>
			<path id="Path_97_2_" class="st3" d="M-1412.11-7730.1c0-0.05,0.02-0.07,0.07-0.07h0.54c0.07,0,0.14,0,0.21,0.01
				c0.05,0.01,0.1,0.02,0.15,0.04c0.09,0.04,0.17,0.11,0.22,0.2c0.05,0.09,0.08,0.2,0.08,0.3c0,0.13-0.03,0.25-0.1,0.35
				c-0.06,0.1-0.16,0.17-0.27,0.2v0l0.02,0.03l0.03,0.05l0.39,0.72c0.01,0.02,0.01,0.04,0.01,0.06c-0.01,0.02-0.03,0.02-0.05,0.02
				h-0.07c-0.03,0-0.07-0.02-0.08-0.05l-0.43-0.79h-0.5v0.77c0,0.03-0.02,0.06-0.05,0.07c-0.01,0-0.01,0-0.02,0h-0.06
				c-0.05,0-0.07-0.02-0.07-0.07L-1412.11-7730.1z M-1411.44-7729.19c0.11,0.01,0.21-0.04,0.29-0.11c0.07-0.08,0.11-0.19,0.11-0.31
				c0-0.07-0.02-0.15-0.05-0.21c-0.04-0.06-0.09-0.11-0.16-0.14c-0.03-0.01-0.07-0.02-0.1-0.03c-0.05-0.01-0.1-0.01-0.16-0.01h-0.4
				v0.81H-1411.44z"/>
			<path id="Path_98_2_" class="st3" d="M-1405.45-7730.1c0-0.04,0.02-0.07,0.07-0.07h0.08c0.04,0,0.07,0.02,0.08,0.05l0.5,1.12
				l0.05,0.13l0.05,0.12h0.01c0.01-0.03,0.02-0.07,0.04-0.12c0.02-0.05,0.04-0.09,0.05-0.13l0.5-1.12c0.01-0.03,0.05-0.06,0.08-0.05
				h0.08c0.04,0,0.07,0.03,0.07,0.07l0.15,1.86c0.01,0.03-0.01,0.07-0.05,0.07c-0.01,0-0.01,0-0.02,0h-0.05
				c-0.05,0-0.07-0.02-0.07-0.06l-0.11-1.34c0-0.02,0-0.04-0.01-0.06l0-0.08l0-0.07v-0.06h-0.01l-0.02,0.06l-0.03,0.08l-0.03,0.07
				l-0.02,0.06l-0.45,0.97c-0.01,0.03-0.04,0.06-0.08,0.05h-0.07c-0.04,0-0.07-0.02-0.08-0.05l-0.45-0.97
				c-0.02-0.03-0.03-0.08-0.05-0.14c-0.02-0.06-0.04-0.11-0.05-0.15h-0.01l0,0.14c0,0.06,0,0.1-0.01,0.14l-0.11,1.34
				c0,0.03-0.03,0.06-0.06,0.07c0,0-0.01,0-0.01,0h-0.06c-0.05,0-0.07-0.02-0.07-0.07L-1405.45-7730.1z"/>
		</g>
	</g>
</g>
</svg>
